<?xml version="1.0" encoding="utf-8" standalone="no"?>
<!DOCTYPE svg PUBLIC "-//W3C//DTD SVG 1.1//EN"
  "http://www.w3.org/Graphics/SVG/1.1/DTD/svg11.dtd">
<!-- Created with matplotlib (https://matplotlib.org/) -->
<svg height="212.598425pt" version="1.1" viewBox="0 0 340.15748 212.598425" width="340.15748pt" xmlns="http://www.w3.org/2000/svg" xmlns:xlink="http://www.w3.org/1999/xlink">
 <metadata>
  <rdf:RDF xmlns:cc="http://creativecommons.org/ns#" xmlns:dc="http://purl.org/dc/elements/1.1/" xmlns:rdf="http://www.w3.org/1999/02/22-rdf-syntax-ns#">
   <cc:Work>
    <dc:type rdf:resource="http://purl.org/dc/dcmitype/StillImage"/>
    <dc:date>2022-05-18T17:43:41.620841</dc:date>
    <dc:format>image/svg+xml</dc:format>
    <dc:creator>
     <cc:Agent>
      <dc:title>Matplotlib v3.3.2, https://matplotlib.org/</dc:title>
     </cc:Agent>
    </dc:creator>
   </cc:Work>
  </rdf:RDF>
 </metadata>
 <defs>
  <style type="text/css">*{stroke-linecap:butt;stroke-linejoin:round;}</style>
 </defs>
 <g id="figure_1">
  <g id="patch_1">
   <path d="M 0 212.598425 
L 340.15748 212.598425 
L 340.15748 0 
L 0 0 
z
" style="fill:#ffffff;"/>
  </g>
  <g id="axes_1">
   <g id="patch_2">
    <path d="M 55.675 185.798425 
L 329.35748 185.798425 
L 329.35748 14.3 
L 55.675 14.3 
z
" style="fill:#ffffff;"/>
   </g>
   <g id="PolyCollection_1">
    <path clip-path="url(#p5dd930fe09)" d="M 68.115113 217.537163 
L 68.115113 230.367698 
L 69.365375 205.358666 
L 70.615638 180.304903 
L 71.865901 156.499101 
L 73.116163 139.921291 
L 74.366426 129.419276 
L 75.616688 122.64407 
L 76.866951 118.394777 
L 78.117213 115.553176 
L 79.367476 113.701191 
L 80.617739 112.701828 
L 81.868001 112.314489 
L 83.118264 112.443222 
L 84.368526 112.665447 
L 85.618789 113.497524 
L 86.869052 113.932365 
L 88.119314 114.839009 
L 89.369577 115.964293 
L 90.619839 116.709517 
L 91.870102 118.199354 
L 93.120364 119.587002 
L 94.370627 121.096317 
L 95.62089 122.822464 
L 96.871152 124.459597 
L 98.121415 126.402259 
L 99.371677 128.114827 
L 100.62194 129.702214 
L 101.872203 131.535508 
L 103.122465 133.572219 
L 104.372728 135.527023 
L 105.62299 137.491661 
L 106.873253 139.721047 
L 108.123516 142.16934 
L 109.373778 143.849503 
L 110.624041 146.486219 
L 111.874303 148.711859 
L 113.124566 150.621284 
L 114.374828 153.000269 
L 115.625091 155.374922 
L 116.875354 158.058186 
L 118.125616 159.93598 
L 119.375879 162.425207 
L 120.626141 164.810135 
L 121.876404 167.503522 
L 123.126667 169.925202 
L 124.376929 172.178963 
L 125.627192 174.828139 
L 126.877454 177.784852 
L 128.127717 179.95805 
L 129.37798 182.71668 
L 130.628242 185.138226 
L 131.878505 187.578643 
L 133.128767 190.194174 
L 134.37903 193.089396 
L 135.629292 194.93774 
L 136.879555 197.343051 
L 138.129818 200.56343 
L 139.38008 202.699944 
L 140.630343 205.119197 
L 141.880605 207.504567 
L 143.130868 210.020207 
L 144.381131 212.96422 
L 145.631393 214.779899 
L 146.881656 217.504815 
L 148.131918 219.831061 
L 149.382181 222.555201 
L 150.632443 225.061729 
L 151.882706 227.413437 
L 153.132969 229.880436 
L 154.383231 232.328812 
L 155.633494 234.693826 
L 156.883756 236.888025 
L 158.134019 239.758917 
L 159.384282 241.894342 
L 160.634544 244.961631 
L 161.884807 246.984871 
L 163.135069 249.471605 
L 164.385332 252.277389 
L 165.635595 254.419662 
L 166.885857 256.822805 
L 168.13612 259.264861 
L 169.386382 261.642244 
L 170.636645 264.324299 
L 171.886907 266.620419 
L 173.13717 269.414833 
L 174.387433 271.778956 
L 175.637695 274.248876 
L 176.887958 276.465357 
L 178.13822 278.920541 
L 179.388483 281.26853 
L 180.638746 284.057807 
L 181.889008 286.388003 
L 183.139271 289.285568 
L 184.389533 291.367318 
L 185.639796 293.934452 
L 186.890059 295.989401 
L 188.140321 298.912489 
L 189.390584 300.961852 
L 190.640846 303.839743 
L 191.891109 306.028391 
L 193.141371 308.638452 
L 194.391634 311.593123 
L 195.641897 313.853107 
L 196.892159 316.159957 
L 198.142422 318.859063 
L 199.392684 321.287363 
L 200.642947 323.824627 
L 201.89321 325.954778 
L 203.143472 328.588178 
L 204.393735 330.730586 
L 205.643997 333.559381 
L 206.89426 336.065764 
L 208.144522 338.373031 
L 209.394785 340.982962 
L 210.645048 343.849247 
L 211.89531 345.946828 
L 213.145573 348.418941 
L 214.395835 350.921359 
L 215.646098 353.250308 
L 216.896361 355.665722 
L 218.146623 358.445548 
L 219.396886 360.943321 
L 220.647148 363.464363 
L 221.897411 365.800764 
L 223.147674 368.083824 
L 224.397936 370.593489 
L 225.648199 373.058656 
L 226.898461 375.563817 
L 228.148724 378.190712 
L 229.398986 380.318978 
L 230.649249 382.986841 
L 231.899512 385.3166 
L 233.149774 388.00844 
L 234.400037 390.482286 
L 235.650299 393.150716 
L 236.900562 395.606073 
L 238.150825 397.889806 
L 239.401087 400.648234 
L 240.65135 403.049363 
L 241.901612 405.865625 
L 243.151875 408.353603 
L 244.402138 410.162413 
L 245.6524 412.530654 
L 246.902663 415.554604 
L 248.152925 418.090882 
L 249.403188 420.45301 
L 250.65345 422.773397 
L 251.903713 425.924361 
L 253.153976 428.161614 
L 254.404238 430.653718 
L 255.654501 433.019473 
L 256.904763 435.599127 
L 258.155026 438.032234 
L 259.405289 440.694445 
L 260.655551 443.122621 
L 261.905814 445.587058 
L 263.156076 447.909447 
L 264.406339 450.642756 
L 265.656602 452.771275 
L 266.906864 455.769012 
L 268.157127 458.519916 
L 269.407389 460.421131 
L 270.657652 463.269756 
L 271.907914 465.607242 
L 273.158177 468.168111 
L 274.40844 470.801429 
L 275.658702 472.920859 
L 276.908965 475.214972 
L 278.159227 477.816691 
L 279.40949 480.581975 
L 280.659753 483.253051 
L 281.910015 485.867075 
L 283.160278 487.770823 
L 284.41054 490.83789 
L 285.660803 492.916092 
L 286.911065 495.360346 
L 288.161328 497.914772 
L 289.411591 500.873656 
L 290.661853 503.108982 
L 291.912116 505.634612 
L 293.162378 508.42656 
L 294.412641 510.733507 
L 295.662904 513.327935 
L 296.913166 516.017492 
L 298.163429 517.894231 
L 299.413691 521.105749 
L 300.663954 523.04545 
L 301.914217 525.597073 
L 303.164479 528.359506 
L 304.414742 531.086231 
L 305.665004 533.851221 
L 306.915267 535.947068 
L 308.165529 538.538748 
L 309.415792 541.171938 
L 310.666055 543.320413 
L 311.916317 545.947063 
L 313.16658 548.577263 
L 314.416842 550.916263 
L 315.667105 553.812395 
L 316.917368 555.8601 
L 316.917368 546.02319 
L 316.917368 546.02319 
L 315.667105 543.808387 
L 314.416842 540.962122 
L 313.16658 538.683084 
L 311.916317 536.238762 
L 310.666055 533.542904 
L 309.415792 531.159401 
L 308.165529 527.878554 
L 306.915267 526.59899 
L 305.665004 523.35307 
L 304.414742 521.113705 
L 303.164479 518.269345 
L 301.914217 515.756484 
L 300.663954 513.180427 
L 299.413691 511.250693 
L 298.163429 508.463327 
L 296.913166 505.697946 
L 295.662904 503.497046 
L 294.412641 501.17064 
L 293.162378 498.66847 
L 291.912116 495.81698 
L 290.661853 493.277123 
L 289.411591 490.929911 
L 288.161328 488.402353 
L 286.911065 485.811498 
L 285.660803 483.453216 
L 284.41054 481.213069 
L 283.160278 478.42179 
L 281.910015 475.72187 
L 280.659753 473.403503 
L 279.40949 470.87047 
L 278.159227 468.595861 
L 276.908965 465.37786 
L 275.658702 463.540466 
L 274.40844 460.533622 
L 273.158177 458.476247 
L 271.907914 455.774517 
L 270.657652 453.123976 
L 269.407389 451.068529 
L 268.157127 448.574421 
L 266.906864 445.719881 
L 265.656602 443.21355 
L 264.406339 440.76355 
L 263.156076 438.442934 
L 261.905814 435.821886 
L 260.655551 433.50628 
L 259.405289 430.779145 
L 258.155026 428.348245 
L 256.904763 426.104402 
L 255.654501 423.408471 
L 254.404238 421.090805 
L 253.153976 418.769263 
L 251.903713 415.485652 
L 250.65345 413.757157 
L 249.403188 410.817694 
L 248.152925 408.896424 
L 246.902663 406.253525 
L 245.6524 403.559791 
L 244.402138 401.157321 
L 243.151875 398.725531 
L 241.901612 395.912354 
L 240.65135 393.653437 
L 239.401087 391.175337 
L 238.150825 388.766864 
L 236.900562 385.952404 
L 235.650299 383.676318 
L 234.400037 381.050481 
L 233.149774 378.521257 
L 231.899512 375.650896 
L 230.649249 373.700378 
L 229.398986 371.33543 
L 228.148724 368.848567 
L 226.898461 366.324037 
L 225.648199 363.743885 
L 224.397936 361.676171 
L 223.147674 358.708457 
L 221.897411 356.333547 
L 220.647148 353.87328 
L 219.396886 351.558411 
L 218.146623 349.143796 
L 216.896361 346.322985 
L 215.646098 343.864167 
L 214.395835 341.866146 
L 213.145573 339.032858 
L 211.89531 336.779978 
L 210.645048 334.275033 
L 209.394785 331.271892 
L 208.144522 329.5631 
L 206.89426 326.295813 
L 205.643997 324.221194 
L 204.393735 321.879195 
L 203.143472 319.568558 
L 201.89321 316.437316 
L 200.642947 314.447817 
L 199.392684 311.829175 
L 198.142422 309.430236 
L 196.892159 307.086519 
L 195.641897 304.53554 
L 194.391634 301.944196 
L 193.141371 299.795759 
L 191.891109 297.278948 
L 190.640846 294.881507 
L 189.390584 292.207081 
L 188.140321 289.574968 
L 186.890059 287.565596 
L 185.639796 285.023742 
L 184.389533 282.562423 
L 183.139271 279.72436 
L 181.889008 277.225118 
L 180.638746 274.936411 
L 179.388483 272.793506 
L 178.13822 270.082491 
L 176.887958 267.279304 
L 175.637695 265.260342 
L 174.387433 262.376064 
L 173.13717 260.297188 
L 171.886907 258.03469 
L 170.636645 255.383501 
L 169.386382 253.067668 
L 168.13612 250.176001 
L 166.885857 247.927592 
L 165.635595 245.526423 
L 164.385332 243.02142 
L 163.135069 240.450744 
L 161.884807 238.300686 
L 160.634544 235.627727 
L 159.384282 233.157988 
L 158.134019 230.512381 
L 156.883756 228.418968 
L 155.633494 225.888596 
L 154.383231 223.611346 
L 153.132969 221.006509 
L 151.882706 218.181738 
L 150.632443 216.194267 
L 149.382181 213.62048 
L 148.131918 210.899638 
L 146.881656 208.658951 
L 145.631393 206.278498 
L 144.381131 203.582274 
L 143.130868 201.688976 
L 141.880605 198.727649 
L 140.630343 195.974794 
L 139.38008 193.765506 
L 138.129818 191.164845 
L 136.879555 188.839126 
L 135.629292 186.163744 
L 134.37903 183.808225 
L 133.128767 181.543331 
L 131.878505 179.210923 
L 130.628242 175.988909 
L 129.37798 173.937151 
L 128.127717 171.345832 
L 126.877454 168.59468 
L 125.627192 166.024447 
L 124.376929 163.914321 
L 123.126667 160.833614 
L 121.876404 158.821063 
L 120.626141 156.07093 
L 119.375879 153.949615 
L 118.125616 151.086838 
L 116.875354 148.632023 
L 115.625091 146.916354 
L 114.374828 144.306741 
L 113.124566 142.145464 
L 111.874303 139.59312 
L 110.624041 137.282186 
L 109.373778 135.095502 
L 108.123516 133.192231 
L 106.873253 131.160397 
L 105.62299 128.831756 
L 104.372728 127.017127 
L 103.122465 125.011958 
L 101.872203 123.267436 
L 100.62194 121.258675 
L 99.371677 119.542817 
L 98.121415 117.503795 
L 96.871152 116.005337 
L 95.62089 114.533209 
L 94.370627 113.158245 
L 93.120364 111.275645 
L 91.870102 109.938345 
L 90.619839 108.678032 
L 89.369577 107.379342 
L 88.119314 106.507459 
L 86.869052 106.146118 
L 85.618789 104.781963 
L 84.368526 104.107656 
L 83.118264 104.346782 
L 81.868001 103.841605 
L 80.617739 104.234539 
L 79.367476 105.483857 
L 78.117213 107.180775 
L 76.866951 108.66923 
L 75.616688 112.89494 
L 74.366426 118.60816 
L 73.116163 128.591235 
L 71.865901 144.753946 
L 70.615638 168.102264 
L 69.365375 193.236228 
L 68.115113 217.537163 
z
" style="fill-opacity:0.2;stroke:#000000;stroke-opacity:0.2;"/>
   </g>
   <g id="PolyCollection_2">
    <defs>
     <path d="M 68.115113 -77.808577 
L 68.115113 -70.309467 
L 69.365375 -73.967524 
L 70.615638 -77.787047 
L 71.865901 -81.141034 
L 73.116163 -84.782698 
L 74.366426 -87.793391 
L 75.616688 -90.907987 
L 76.866951 -93.195785 
L 78.117213 -95.87508 
L 79.367476 -97.950059 
L 80.617739 -99.926868 
L 81.868001 -101.557578 
L 83.118264 -103.587128 
L 84.368526 -105.139959 
L 85.618789 -106.698183 
L 86.869052 -108.368897 
L 88.119314 -109.864166 
L 89.369577 -110.94608 
L 90.619839 -111.938852 
L 91.870102 -113.399509 
L 93.120364 -114.60547 
L 94.370627 -115.491315 
L 95.62089 -116.417353 
L 96.871152 -116.961706 
L 98.121415 -118.074277 
L 99.371677 -118.552768 
L 100.62194 -119.024432 
L 101.872203 -119.833648 
L 103.122465 -120.146355 
L 104.372728 -120.69539 
L 105.62299 -121.000838 
L 106.873253 -121.165783 
L 108.123516 -121.421023 
L 109.373778 -121.423165 
L 110.624041 -121.771502 
L 111.874303 -121.660126 
L 113.124566 -121.796417 
L 114.374828 -121.758874 
L 115.625091 -121.627971 
L 116.875354 -121.632105 
L 118.125616 -121.340597 
L 119.375879 -121.223921 
L 120.626141 -120.901262 
L 121.876404 -120.605835 
L 123.126667 -120.314407 
L 124.376929 -119.948562 
L 125.627192 -119.372019 
L 126.877454 -119.264773 
L 128.127717 -118.784521 
L 129.37798 -118.745897 
L 130.628242 -118.245071 
L 131.878505 -117.797712 
L 133.128767 -117.387314 
L 134.37903 -117.253675 
L 135.629292 -116.712347 
L 136.879555 -116.36562 
L 138.129818 -116.226701 
L 139.38008 -115.909017 
L 140.630343 -115.759065 
L 141.880605 -115.1727 
L 143.130868 -115.141105 
L 144.381131 -114.902085 
L 145.631393 -114.63141 
L 146.881656 -114.440776 
L 148.131918 -113.920668 
L 149.382181 -113.909221 
L 150.632443 -113.633383 
L 151.882706 -113.601738 
L 153.132969 -113.332774 
L 154.383231 -113.060531 
L 155.633494 -112.966156 
L 156.883756 -112.931139 
L 158.134019 -112.661264 
L 159.384282 -112.609722 
L 160.634544 -112.23498 
L 161.884807 -112.293993 
L 163.135069 -112.16874 
L 164.385332 -111.75329 
L 165.635595 -111.721015 
L 166.885857 -111.55301 
L 168.13612 -111.214857 
L 169.386382 -111.355024 
L 170.636645 -111.100809 
L 171.886907 -111.134482 
L 173.13717 -110.935675 
L 174.387433 -110.76122 
L 175.637695 -110.748054 
L 176.887958 -110.609053 
L 178.13822 -110.441125 
L 179.388483 -110.320888 
L 180.638746 -110.426297 
L 181.889008 -110.001839 
L 183.139271 -109.978029 
L 184.389533 -109.998166 
L 185.639796 -109.798783 
L 186.890059 -109.864073 
L 188.140321 -109.597891 
L 189.390584 -109.459219 
L 190.640846 -109.366315 
L 191.891109 -108.796046 
L 193.141371 -109.160798 
L 194.391634 -108.931609 
L 195.641897 -108.719167 
L 196.892159 -108.638265 
L 198.142422 -108.39816 
L 199.392684 -108.558313 
L 200.642947 -108.368805 
L 201.89321 -108.114689 
L 203.143472 -108.157886 
L 204.393735 -107.950831 
L 205.643997 -107.747014 
L 206.89426 -107.733057 
L 208.144522 -107.507283 
L 209.394785 -107.259938 
L 210.645048 -106.984768 
L 211.89531 -106.928881 
L 213.145573 -106.828873 
L 214.395835 -106.925132 
L 215.646098 -106.640909 
L 216.896361 -106.575135 
L 218.146623 -106.308055 
L 219.396886 -106.042918 
L 220.647148 -105.947591 
L 221.897411 -105.595564 
L 223.147674 -105.628069 
L 224.397936 -105.509838 
L 225.648199 -105.037357 
L 226.898461 -105.202871 
L 228.148724 -104.968059 
L 229.398986 -104.810944 
L 230.649249 -104.474194 
L 231.899512 -104.328 
L 233.149774 -104.174393 
L 234.400037 -103.871663 
L 235.650299 -103.828156 
L 236.900562 -103.507494 
L 238.150825 -103.340466 
L 239.401087 -103.037288 
L 240.65135 -102.987698 
L 241.901612 -102.758638 
L 243.151875 -102.630564 
L 244.402138 -102.334532 
L 245.6524 -102.109312 
L 246.902663 -101.852649 
L 248.152925 -101.641238 
L 249.403188 -101.470988 
L 250.65345 -101.212025 
L 251.903713 -100.96318 
L 253.153976 -100.874336 
L 254.404238 -100.682663 
L 255.654501 -100.480447 
L 256.904763 -100.072717 
L 258.155026 -99.908671 
L 259.405289 -99.636016 
L 260.655551 -99.363732 
L 261.905814 -99.174163 
L 263.156076 -98.901129 
L 264.406339 -98.827398 
L 265.656602 -98.539365 
L 266.906864 -98.280713 
L 268.157127 -98.13666 
L 269.407389 -97.737507 
L 270.657652 -97.479818 
L 271.907914 -97.204067 
L 273.158177 -96.947633 
L 274.40844 -96.933619 
L 275.658702 -96.377622 
L 276.908965 -96.288473 
L 278.159227 -95.753559 
L 279.40949 -95.672832 
L 280.659753 -95.275503 
L 281.910015 -95.223318 
L 283.160278 -95.058732 
L 284.41054 -94.763157 
L 285.660803 -94.353644 
L 286.911065 -94.157702 
L 288.161328 -93.964173 
L 289.411591 -93.609831 
L 290.661853 -93.509139 
L 291.912116 -93.192006 
L 293.162378 -92.728028 
L 294.412641 -92.278798 
L 295.662904 -92.348925 
L 296.913166 -92.016383 
L 298.163429 -91.892632 
L 299.413691 -91.262487 
L 300.663954 -91.135222 
L 301.914217 -90.898159 
L 303.164479 -90.517747 
L 304.414742 -90.254181 
L 305.665004 -90.046033 
L 306.915267 -89.6942 
L 308.165529 -89.464202 
L 309.415792 -89.108937 
L 310.666055 -89.1057 
L 311.916317 -88.516274 
L 313.16658 -88.191717 
L 314.416842 -87.841591 
L 315.667105 -87.796894 
L 316.917368 -87.568655 
L 316.917368 -91.977616 
L 316.917368 -91.977616 
L 315.667105 -92.34542 
L 314.416842 -92.536985 
L 313.16658 -92.770477 
L 311.916317 -93.193532 
L 310.666055 -93.386407 
L 309.415792 -93.859135 
L 308.165529 -94.085275 
L 306.915267 -94.355726 
L 305.665004 -94.549165 
L 304.414742 -94.914647 
L 303.164479 -95.281168 
L 301.914217 -95.449699 
L 300.663954 -95.77654 
L 299.413691 -96.101486 
L 298.163429 -96.329095 
L 296.913166 -96.689477 
L 295.662904 -96.868181 
L 294.412641 -96.996022 
L 293.162378 -97.460656 
L 291.912116 -97.80048 
L 290.661853 -97.937522 
L 289.411591 -98.398035 
L 288.161328 -98.644551 
L 286.911065 -98.971339 
L 285.660803 -99.028219 
L 284.41054 -99.506102 
L 283.160278 -99.608178 
L 281.910015 -99.839644 
L 280.659753 -100.189666 
L 279.40949 -100.542182 
L 278.159227 -100.541607 
L 276.908965 -100.883785 
L 275.658702 -101.181289 
L 274.40844 -101.472692 
L 273.158177 -101.668656 
L 271.907914 -102.072457 
L 270.657652 -102.437195 
L 269.407389 -102.602546 
L 268.157127 -102.749972 
L 266.906864 -103.144068 
L 265.656602 -103.416834 
L 264.406339 -103.591929 
L 263.156076 -103.870939 
L 261.905814 -104.219797 
L 260.655551 -104.294234 
L 259.405289 -104.571838 
L 258.155026 -104.590821 
L 256.904763 -105.090064 
L 255.654501 -105.155831 
L 254.404238 -105.427668 
L 253.153976 -105.579115 
L 251.903713 -106.010702 
L 250.65345 -106.239552 
L 249.403188 -106.520867 
L 248.152925 -106.690725 
L 246.902663 -106.842908 
L 245.6524 -107.13489 
L 244.402138 -107.243089 
L 243.151875 -107.622839 
L 241.901612 -107.753431 
L 240.65135 -108.124054 
L 239.401087 -108.2051 
L 238.150825 -108.384097 
L 236.900562 -108.486959 
L 235.650299 -108.756871 
L 234.400037 -108.952299 
L 233.149774 -109.138643 
L 231.899512 -109.395004 
L 230.649249 -109.48951 
L 229.398986 -109.65086 
L 228.148724 -110.058155 
L 226.898461 -110.205408 
L 225.648199 -110.569463 
L 224.397936 -110.430667 
L 223.147674 -110.583257 
L 221.897411 -110.915713 
L 220.647148 -111.075464 
L 219.396886 -111.041008 
L 218.146623 -111.409065 
L 216.896361 -111.477254 
L 215.646098 -111.730609 
L 214.395835 -112.072159 
L 213.145573 -111.939529 
L 211.89531 -112.014194 
L 210.645048 -112.152176 
L 209.394785 -112.552101 
L 208.144522 -112.610858 
L 206.89426 -112.798253 
L 205.643997 -112.814439 
L 204.393735 -113.11136 
L 203.143472 -113.032394 
L 201.89321 -113.342826 
L 200.642947 -113.499137 
L 199.392684 -113.354773 
L 198.142422 -113.872509 
L 196.892159 -113.902776 
L 195.641897 -113.894891 
L 194.391634 -113.944773 
L 193.141371 -114.275205 
L 191.891109 -114.442661 
L 190.640846 -114.545537 
L 189.390584 -114.785163 
L 188.140321 -114.73096 
L 186.890059 -114.883703 
L 185.639796 -114.819749 
L 184.389533 -114.930389 
L 183.139271 -115.258084 
L 181.889008 -115.283922 
L 180.638746 -115.39657 
L 179.388483 -115.532322 
L 178.13822 -115.648957 
L 176.887958 -115.704757 
L 175.637695 -115.782712 
L 174.387433 -115.881728 
L 173.13717 -116.033843 
L 171.886907 -116.158646 
L 170.636645 -116.353185 
L 169.386382 -116.438811 
L 168.13612 -116.508949 
L 166.885857 -116.749614 
L 165.635595 -116.923844 
L 164.385332 -116.845375 
L 163.135069 -117.225877 
L 161.884807 -117.36274 
L 160.634544 -117.555108 
L 159.384282 -117.726565 
L 158.134019 -117.742607 
L 156.883756 -118.070531 
L 155.633494 -118.088756 
L 154.383231 -118.273421 
L 153.132969 -118.698124 
L 151.882706 -118.622572 
L 150.632443 -118.81687 
L 149.382181 -118.999997 
L 148.131918 -119.283213 
L 146.881656 -119.36864 
L 145.631393 -119.836169 
L 144.381131 -119.984102 
L 143.130868 -120.412525 
L 141.880605 -120.367821 
L 140.630343 -120.71324 
L 139.38008 -120.999267 
L 138.129818 -121.595187 
L 136.879555 -121.713971 
L 135.629292 -122.016925 
L 134.37903 -122.292924 
L 133.128767 -122.652649 
L 131.878505 -122.95636 
L 130.628242 -123.285526 
L 129.37798 -123.670015 
L 128.127717 -124.022961 
L 126.877454 -124.531001 
L 125.627192 -124.956596 
L 124.376929 -125.255841 
L 123.126667 -125.616845 
L 121.876404 -125.810935 
L 120.626141 -126.119235 
L 119.375879 -126.417523 
L 118.125616 -126.721234 
L 116.875354 -126.913204 
L 115.625091 -126.764731 
L 114.374828 -127.106041 
L 113.124566 -127.253864 
L 111.874303 -127.212422 
L 110.624041 -127.306702 
L 109.373778 -127.211047 
L 108.123516 -127.258034 
L 106.873253 -126.918697 
L 105.62299 -126.756306 
L 104.372728 -126.784746 
L 103.122465 -126.280396 
L 101.872203 -125.99612 
L 100.62194 -125.728463 
L 99.371677 -125.043794 
L 98.121415 -124.565394 
L 96.871152 -123.711694 
L 95.62089 -123.026126 
L 94.370627 -122.083056 
L 93.120364 -121.305341 
L 91.870102 -120.291355 
L 90.619839 -118.839907 
L 89.369577 -117.657841 
L 88.119314 -116.921495 
L 86.869052 -115.525285 
L 85.618789 -113.808907 
L 84.368526 -112.232787 
L 83.118264 -110.822263 
L 81.868001 -108.956049 
L 80.617739 -107.477728 
L 79.367476 -105.239698 
L 78.117213 -102.840085 
L 76.866951 -101.190034 
L 75.616688 -98.38399 
L 74.366426 -95.266347 
L 73.116163 -92.129598 
L 71.865901 -88.608258 
L 70.615638 -84.880784 
L 69.365375 -81.566984 
L 68.115113 -77.808577 
z
" id="mda4d68ad0c" style="stroke:#000000;stroke-opacity:0.2;"/>
    </defs>
    <g clip-path="url(#p5dd930fe09)">
     <use style="fill-opacity:0.2;stroke:#000000;stroke-opacity:0.2;" x="0" xlink:href="#mda4d68ad0c" y="212.598425"/>
    </g>
   </g>
   <g id="PolyCollection_3">
    <defs>
     <path d="M 68.115113 -13.764669 
L 68.115113 -5.941857 
L 69.365375 -6.452471 
L 70.615638 -7.265688 
L 71.865901 -8.291708 
L 73.116163 -8.823395 
L 74.366426 -9.951516 
L 75.616688 -10.849608 
L 76.866951 -11.698674 
L 78.117213 -12.488958 
L 79.367476 -13.362103 
L 80.617739 -14.130115 
L 81.868001 -14.882519 
L 83.118264 -15.625636 
L 84.368526 -16.648976 
L 85.618789 -17.293864 
L 86.869052 -18.126187 
L 88.119314 -19.095358 
L 89.369577 -19.975507 
L 90.619839 -20.530129 
L 91.870102 -21.47849 
L 93.120364 -21.937858 
L 94.370627 -23.135002 
L 95.62089 -23.880505 
L 96.871152 -24.575325 
L 98.121415 -25.373531 
L 99.371677 -26.644667 
L 100.62194 -27.000993 
L 101.872203 -28.148846 
L 103.122465 -28.796172 
L 104.372728 -29.761564 
L 105.62299 -30.630794 
L 106.873253 -31.282526 
L 108.123516 -32.055699 
L 109.373778 -32.833926 
L 110.624041 -33.633705 
L 111.874303 -34.711929 
L 113.124566 -35.680141 
L 114.374828 -36.092388 
L 115.625091 -36.832021 
L 116.875354 -37.967366 
L 118.125616 -39.231454 
L 119.375879 -39.767818 
L 120.626141 -40.450348 
L 121.876404 -41.114013 
L 123.126667 -42.168057 
L 124.376929 -43.012752 
L 125.627192 -43.572562 
L 126.877454 -44.6869 
L 128.127717 -45.06208 
L 129.37798 -45.985308 
L 130.628242 -46.947053 
L 131.878505 -47.572026 
L 133.128767 -47.93069 
L 134.37903 -49.436237 
L 135.629292 -49.923936 
L 136.879555 -50.902393 
L 138.129818 -51.44527 
L 139.38008 -52.443709 
L 140.630343 -52.975692 
L 141.880605 -53.886772 
L 143.130868 -54.605893 
L 144.381131 -55.486065 
L 145.631393 -55.792517 
L 146.881656 -56.487638 
L 148.131918 -57.39746 
L 149.382181 -58.305181 
L 150.632443 -58.835783 
L 151.882706 -59.523207 
L 153.132969 -60.221797 
L 154.383231 -61.165619 
L 155.633494 -61.715213 
L 156.883756 -62.298063 
L 158.134019 -62.56337 
L 159.384282 -63.842746 
L 160.634544 -64.272551 
L 161.884807 -65.016509 
L 163.135069 -65.683732 
L 164.385332 -66.270296 
L 165.635595 -67.243035 
L 166.885857 -67.481118 
L 168.13612 -68.324057 
L 169.386382 -68.868596 
L 170.636645 -69.291721 
L 171.886907 -70.035586 
L 173.13717 -70.529148 
L 174.387433 -70.935349 
L 175.637695 -71.587259 
L 176.887958 -72.32035 
L 178.13822 -72.768953 
L 179.388483 -73.12254 
L 180.638746 -73.596279 
L 181.889008 -73.898018 
L 183.139271 -74.478754 
L 184.389533 -75.045158 
L 185.639796 -75.510076 
L 186.890059 -75.971183 
L 188.140321 -76.447612 
L 189.390584 -76.851802 
L 190.640846 -77.397025 
L 191.891109 -77.550131 
L 193.141371 -77.592101 
L 194.391634 -78.068582 
L 195.641897 -78.490477 
L 196.892159 -78.664034 
L 198.142422 -79.271082 
L 199.392684 -79.875588 
L 200.642947 -80.004303 
L 201.89321 -79.944541 
L 203.143472 -80.666364 
L 204.393735 -80.627983 
L 205.643997 -80.791941 
L 206.89426 -81.527826 
L 208.144522 -81.290943 
L 209.394785 -81.394201 
L 210.645048 -81.566528 
L 211.89531 -82.148742 
L 213.145573 -81.806783 
L 214.395835 -82.19726 
L 215.646098 -82.357427 
L 216.896361 -82.147779 
L 218.146623 -82.836505 
L 219.396886 -82.646314 
L 220.647148 -82.497043 
L 221.897411 -82.546619 
L 223.147674 -82.740284 
L 224.397936 -82.653888 
L 225.648199 -82.530284 
L 226.898461 -82.843775 
L 228.148724 -82.803531 
L 229.398986 -82.847563 
L 230.649249 -82.826864 
L 231.899512 -82.982194 
L 233.149774 -82.676951 
L 234.400037 -82.623291 
L 235.650299 -82.552435 
L 236.900562 -82.328384 
L 238.150825 -82.19056 
L 239.401087 -82.179144 
L 240.65135 -81.557096 
L 241.901612 -81.375786 
L 243.151875 -81.176469 
L 244.402138 -80.682932 
L 245.6524 -80.900488 
L 246.902663 -80.352527 
L 248.152925 -79.901496 
L 249.403188 -79.495321 
L 250.65345 -79.437353 
L 251.903713 -78.84206 
L 253.153976 -78.318633 
L 254.404238 -77.931215 
L 255.654501 -77.638643 
L 256.904763 -77.339991 
L 258.155026 -76.675183 
L 259.405289 -76.238938 
L 260.655551 -75.586294 
L 261.905814 -74.769724 
L 263.156076 -74.474629 
L 264.406339 -73.54027 
L 265.656602 -72.890302 
L 266.906864 -72.004863 
L 268.157127 -71.371254 
L 269.407389 -70.527449 
L 270.657652 -69.701115 
L 271.907914 -68.96823 
L 273.158177 -68.000623 
L 274.40844 -67.143957 
L 275.658702 -66.300936 
L 276.908965 -65.341217 
L 278.159227 -64.375841 
L 279.40949 -63.395 
L 280.659753 -62.44332 
L 281.910015 -61.380887 
L 283.160278 -60.635351 
L 284.41054 -59.363639 
L 285.660803 -58.375926 
L 286.911065 -57.543945 
L 288.161328 -56.660181 
L 289.411591 -55.604561 
L 290.661853 -54.630183 
L 291.912116 -53.568857 
L 293.162378 -52.28728 
L 294.412641 -51.332996 
L 295.662904 -50.328931 
L 296.913166 -49.11671 
L 298.163429 -47.886214 
L 299.413691 -46.72966 
L 300.663954 -45.900958 
L 301.914217 -44.750606 
L 303.164479 -43.483429 
L 304.414742 -42.668064 
L 305.665004 -41.562209 
L 306.915267 -40.526063 
L 308.165529 -39.231178 
L 309.415792 -38.462043 
L 310.666055 -37.386848 
L 311.916317 -35.900444 
L 313.16658 -34.736909 
L 314.416842 -33.758358 
L 315.667105 -32.643317 
L 316.917368 -31.727611 
L 316.917368 -38.563739 
L 316.917368 -38.563739 
L 315.667105 -39.847391 
L 314.416842 -40.691295 
L 313.16658 -42.001219 
L 311.916317 -43.143106 
L 310.666055 -43.921805 
L 309.415792 -45.153103 
L 308.165529 -46.478763 
L 306.915267 -47.426545 
L 305.665004 -48.37739 
L 304.414742 -49.726882 
L 303.164479 -51.014473 
L 301.914217 -51.538811 
L 300.663954 -52.902498 
L 299.413691 -54.040705 
L 298.163429 -55.343257 
L 296.913166 -56.137629 
L 295.662904 -57.225548 
L 294.412641 -58.420318 
L 293.162378 -59.443956 
L 291.912116 -60.834766 
L 290.661853 -61.877192 
L 289.411591 -62.803082 
L 288.161328 -63.668788 
L 286.911065 -64.902771 
L 285.660803 -65.835781 
L 284.41054 -66.632848 
L 283.160278 -67.687895 
L 281.910015 -68.790824 
L 280.659753 -70.073552 
L 279.40949 -70.729022 
L 278.159227 -71.87978 
L 276.908965 -72.710743 
L 275.658702 -73.48971 
L 274.40844 -74.526614 
L 273.158177 -75.533664 
L 271.907914 -76.427871 
L 270.657652 -77.417681 
L 269.407389 -78.117975 
L 268.157127 -78.70582 
L 266.906864 -79.690582 
L 265.656602 -80.705217 
L 264.406339 -81.199756 
L 263.156076 -81.842995 
L 261.905814 -82.524746 
L 260.655551 -83.103774 
L 259.405289 -83.764608 
L 258.155026 -84.134367 
L 256.904763 -84.867737 
L 255.654501 -85.114166 
L 254.404238 -85.612791 
L 253.153976 -86.183853 
L 251.903713 -86.835139 
L 250.65345 -86.940683 
L 249.403188 -87.685404 
L 248.152925 -87.766788 
L 246.902663 -87.967166 
L 245.6524 -87.982783 
L 244.402138 -88.805782 
L 243.151875 -88.842543 
L 241.901612 -89.144266 
L 240.65135 -89.123373 
L 239.401087 -89.917479 
L 238.150825 -89.913984 
L 236.900562 -90.032426 
L 235.650299 -90.05253 
L 234.400037 -90.188123 
L 233.149774 -90.532174 
L 231.899512 -90.827484 
L 230.649249 -90.530524 
L 229.398986 -90.444582 
L 228.148724 -90.709415 
L 226.898461 -90.734308 
L 225.648199 -90.824185 
L 224.397936 -90.886592 
L 223.147674 -90.75844 
L 221.897411 -90.720105 
L 220.647148 -90.893891 
L 219.396886 -90.777033 
L 218.146623 -90.842962 
L 216.896361 -90.564638 
L 215.646098 -90.376604 
L 214.395835 -90.066 
L 213.145573 -90.04549 
L 211.89531 -89.687655 
L 210.645048 -89.618 
L 209.394785 -89.782518 
L 208.144522 -89.317301 
L 206.89426 -89.14023 
L 205.643997 -89.027987 
L 204.393735 -88.75588 
L 203.143472 -88.550452 
L 201.89321 -88.303935 
L 200.642947 -88.212321 
L 199.392684 -87.639591 
L 198.142422 -87.337307 
L 196.892159 -86.872746 
L 195.641897 -86.611447 
L 194.391634 -86.460678 
L 193.141371 -86.2125 
L 191.891109 -85.555713 
L 190.640846 -85.317454 
L 189.390584 -85.081452 
L 188.140321 -84.65971 
L 186.890059 -84.032407 
L 185.639796 -83.234657 
L 184.389533 -83.413705 
L 183.139271 -82.560783 
L 181.889008 -82.041271 
L 180.638746 -81.690882 
L 179.388483 -81.083904 
L 178.13822 -80.702812 
L 176.887958 -80.615831 
L 175.637695 -79.756318 
L 174.387433 -79.481758 
L 173.13717 -78.866481 
L 171.886907 -78.253014 
L 170.636645 -77.396017 
L 169.386382 -76.829366 
L 168.13612 -76.533109 
L 166.885857 -76.320068 
L 165.635595 -75.037915 
L 164.385332 -74.449402 
L 163.135069 -74.134214 
L 161.884807 -73.380981 
L 160.634544 -72.773039 
L 159.384282 -71.911859 
L 158.134019 -71.405546 
L 156.883756 -70.769606 
L 155.633494 -70.046139 
L 154.383231 -69.15608 
L 153.132969 -68.726974 
L 151.882706 -67.927653 
L 150.632443 -67.256438 
L 149.382181 -66.586172 
L 148.131918 -65.585216 
L 146.881656 -64.999634 
L 145.631393 -64.428618 
L 144.381131 -63.214755 
L 143.130868 -62.604908 
L 141.880605 -62.213149 
L 140.630343 -61.554629 
L 139.38008 -60.66952 
L 138.129818 -59.605945 
L 136.879555 -59.225515 
L 135.629292 -58.205377 
L 134.37903 -57.600515 
L 133.128767 -56.747637 
L 131.878505 -56.201943 
L 130.628242 -55.172678 
L 129.37798 -54.350516 
L 128.127717 -53.525643 
L 126.877454 -52.571278 
L 125.627192 -52.048261 
L 124.376929 -51.331134 
L 123.126667 -50.192728 
L 121.876404 -49.609947 
L 120.626141 -48.816506 
L 119.375879 -47.897 
L 118.125616 -47.108532 
L 116.875354 -46.372996 
L 115.625091 -45.816825 
L 114.374828 -44.736462 
L 113.124566 -43.722004 
L 111.874303 -42.973291 
L 110.624041 -42.210381 
L 109.373778 -41.459006 
L 108.123516 -40.294432 
L 106.873253 -39.816909 
L 105.62299 -39.243584 
L 104.372728 -37.956263 
L 103.122465 -37.04535 
L 101.872203 -36.160137 
L 100.62194 -35.801064 
L 99.371677 -34.789354 
L 98.121415 -34.36223 
L 96.871152 -33.005175 
L 95.62089 -32.488803 
L 94.370627 -31.629642 
L 93.120364 -30.391847 
L 91.870102 -29.659327 
L 90.619839 -28.982924 
L 89.369577 -28.108039 
L 88.119314 -27.132308 
L 86.869052 -26.386974 
L 85.618789 -25.552795 
L 84.368526 -25.034269 
L 83.118264 -23.783732 
L 81.868001 -23.137623 
L 80.617739 -22.546199 
L 79.367476 -21.724027 
L 78.117213 -21.00104 
L 76.866951 -19.742634 
L 75.616688 -19.192401 
L 74.366426 -18.216598 
L 73.116163 -17.389143 
L 71.865901 -16.439981 
L 70.615638 -15.529292 
L 69.365375 -15.175877 
L 68.115113 -13.764669 
z
" id="m1f8b8cc062" style="stroke:#000000;stroke-opacity:0.2;"/>
    </defs>
    <g clip-path="url(#p5dd930fe09)">
     <use style="fill-opacity:0.2;stroke:#000000;stroke-opacity:0.2;" x="0" xlink:href="#m1f8b8cc062" y="212.598425"/>
    </g>
   </g>
   <g id="matplotlib.axis_1">
    <g id="xtick_1">
     <g id="line2d_1">
      <path clip-path="url(#p5dd930fe09)" d="M 68.115113 185.798425 
L 68.115113 14.3 
" style="fill:none;stroke:#b0b0b0;stroke-linecap:square;stroke-width:0.8;"/>
     </g>
     <g id="line2d_2">
      <defs>
       <path d="M 0 0 
L 0 3.5 
" id="mf8a87be4d1" style="stroke:#000000;stroke-width:0.8;"/>
      </defs>
      <g>
       <use style="stroke:#000000;stroke-width:0.8;" x="68.115113" xlink:href="#mf8a87be4d1" y="185.798425"/>
      </g>
     </g>
     <g id="text_1">
      <!-- 0 -->
      <g transform="translate(65.334644 199.956238)scale(0.1 -0.1)">
       <defs>
        <path d="M 4.15625 35.296875 
Q 4.15625 48 6.765625 55.734375 
Q 9.375 63.484375 14.515625 67.671875 
Q 19.671875 71.875 27.484375 71.875 
Q 33.25 71.875 37.59375 69.546875 
Q 41.9375 67.234375 44.765625 62.859375 
Q 47.609375 58.5 49.21875 52.21875 
Q 50.828125 45.953125 50.828125 35.296875 
Q 50.828125 22.703125 48.234375 14.96875 
Q 45.65625 7.234375 40.5 3 
Q 35.359375 -1.21875 27.484375 -1.21875 
Q 17.140625 -1.21875 11.234375 6.203125 
Q 4.15625 15.140625 4.15625 35.296875 
z
M 13.1875 35.296875 
Q 13.1875 17.671875 17.3125 11.828125 
Q 21.4375 6 27.484375 6 
Q 33.546875 6 37.671875 11.859375 
Q 41.796875 17.71875 41.796875 35.296875 
Q 41.796875 52.984375 37.671875 58.78125 
Q 33.546875 64.59375 27.390625 64.59375 
Q 21.34375 64.59375 17.71875 59.46875 
Q 13.1875 52.9375 13.1875 35.296875 
z
" id="ArialMT-48"/>
       </defs>
       <use xlink:href="#ArialMT-48"/>
      </g>
     </g>
    </g>
    <g id="xtick_2">
     <g id="line2d_3">
      <path clip-path="url(#p5dd930fe09)" d="M 130.315676 185.798425 
L 130.315676 14.3 
" style="fill:none;stroke:#b0b0b0;stroke-linecap:square;stroke-width:0.8;"/>
     </g>
     <g id="line2d_4">
      <g>
       <use style="stroke:#000000;stroke-width:0.8;" x="130.315676" xlink:href="#mf8a87be4d1" y="185.798425"/>
      </g>
     </g>
     <g id="text_2">
      <!-- 25 -->
      <g transform="translate(124.754739 199.956238)scale(0.1 -0.1)">
       <defs>
        <path d="M 50.34375 8.453125 
L 50.34375 0 
L 3.03125 0 
Q 2.9375 3.171875 4.046875 6.109375 
Q 5.859375 10.9375 9.828125 15.625 
Q 13.8125 20.3125 21.34375 26.46875 
Q 33.015625 36.03125 37.109375 41.625 
Q 41.21875 47.21875 41.21875 52.203125 
Q 41.21875 57.421875 37.46875 61 
Q 33.734375 64.59375 27.734375 64.59375 
Q 21.390625 64.59375 17.578125 60.78125 
Q 13.765625 56.984375 13.71875 50.25 
L 4.6875 51.171875 
Q 5.609375 61.28125 11.65625 66.578125 
Q 17.71875 71.875 27.9375 71.875 
Q 38.234375 71.875 44.234375 66.15625 
Q 50.25 60.453125 50.25 52 
Q 50.25 47.703125 48.484375 43.546875 
Q 46.734375 39.40625 42.65625 34.8125 
Q 38.578125 30.21875 29.109375 22.21875 
Q 21.1875 15.578125 18.9375 13.203125 
Q 16.703125 10.84375 15.234375 8.453125 
z
" id="ArialMT-50"/>
        <path d="M 4.15625 18.75 
L 13.375 19.53125 
Q 14.40625 12.796875 18.140625 9.390625 
Q 21.875 6 27.15625 6 
Q 33.5 6 37.890625 10.78125 
Q 42.28125 15.578125 42.28125 23.484375 
Q 42.28125 31 38.0625 35.34375 
Q 33.84375 39.703125 27 39.703125 
Q 22.75 39.703125 19.328125 37.765625 
Q 15.921875 35.84375 13.96875 32.765625 
L 5.71875 33.84375 
L 12.640625 70.609375 
L 48.25 70.609375 
L 48.25 62.203125 
L 19.671875 62.203125 
L 15.828125 42.96875 
Q 22.265625 47.46875 29.34375 47.46875 
Q 38.71875 47.46875 45.15625 40.96875 
Q 51.609375 34.46875 51.609375 24.265625 
Q 51.609375 14.546875 45.953125 7.46875 
Q 39.0625 -1.21875 27.15625 -1.21875 
Q 17.390625 -1.21875 11.203125 4.25 
Q 5.03125 9.71875 4.15625 18.75 
z
" id="ArialMT-53"/>
       </defs>
       <use xlink:href="#ArialMT-50"/>
       <use x="55.615234" xlink:href="#ArialMT-53"/>
      </g>
     </g>
    </g>
    <g id="xtick_3">
     <g id="line2d_5">
      <path clip-path="url(#p5dd930fe09)" d="M 192.51624 185.798425 
L 192.51624 14.3 
" style="fill:none;stroke:#b0b0b0;stroke-linecap:square;stroke-width:0.8;"/>
     </g>
     <g id="line2d_6">
      <g>
       <use style="stroke:#000000;stroke-width:0.8;" x="192.51624" xlink:href="#mf8a87be4d1" y="185.798425"/>
      </g>
     </g>
     <g id="text_3">
      <!-- 50 -->
      <g transform="translate(186.955303 199.956238)scale(0.1 -0.1)">
       <use xlink:href="#ArialMT-53"/>
       <use x="55.615234" xlink:href="#ArialMT-48"/>
      </g>
     </g>
    </g>
    <g id="xtick_4">
     <g id="line2d_7">
      <path clip-path="url(#p5dd930fe09)" d="M 254.716804 185.798425 
L 254.716804 14.3 
" style="fill:none;stroke:#b0b0b0;stroke-linecap:square;stroke-width:0.8;"/>
     </g>
     <g id="line2d_8">
      <g>
       <use style="stroke:#000000;stroke-width:0.8;" x="254.716804" xlink:href="#mf8a87be4d1" y="185.798425"/>
      </g>
     </g>
     <g id="text_4">
      <!-- 75 -->
      <g transform="translate(249.155866 199.956238)scale(0.1 -0.1)">
       <defs>
        <path d="M 4.734375 62.203125 
L 4.734375 70.65625 
L 51.078125 70.65625 
L 51.078125 63.8125 
Q 44.234375 56.546875 37.515625 44.484375 
Q 30.8125 32.421875 27.15625 19.671875 
Q 24.515625 10.6875 23.78125 0 
L 14.75 0 
Q 14.890625 8.453125 18.0625 20.40625 
Q 21.234375 32.375 27.171875 43.484375 
Q 33.109375 54.59375 39.796875 62.203125 
z
" id="ArialMT-55"/>
       </defs>
       <use xlink:href="#ArialMT-55"/>
       <use x="55.615234" xlink:href="#ArialMT-53"/>
      </g>
     </g>
    </g>
    <g id="xtick_5">
     <g id="line2d_9">
      <path clip-path="url(#p5dd930fe09)" d="M 316.917368 185.798425 
L 316.917368 14.3 
" style="fill:none;stroke:#b0b0b0;stroke-linecap:square;stroke-width:0.8;"/>
     </g>
     <g id="line2d_10">
      <g>
       <use style="stroke:#000000;stroke-width:0.8;" x="316.917368" xlink:href="#mf8a87be4d1" y="185.798425"/>
      </g>
     </g>
     <g id="text_5">
      <!-- 100 -->
      <g transform="translate(308.575961 199.956238)scale(0.1 -0.1)">
       <defs>
        <path d="M 37.25 0 
L 28.46875 0 
L 28.46875 56 
Q 25.296875 52.984375 20.140625 49.953125 
Q 14.984375 46.921875 10.890625 45.40625 
L 10.890625 53.90625 
Q 18.265625 57.375 23.78125 62.296875 
Q 29.296875 67.234375 31.59375 71.875 
L 37.25 71.875 
z
" id="ArialMT-49"/>
       </defs>
       <use xlink:href="#ArialMT-49"/>
       <use x="55.615234" xlink:href="#ArialMT-48"/>
       <use x="111.230469" xlink:href="#ArialMT-48"/>
      </g>
     </g>
    </g>
   </g>
   <g id="matplotlib.axis_2">
    <g id="ytick_1">
     <g id="line2d_11">
      <path clip-path="url(#p5dd930fe09)" d="M 55.675 185.798425 
L 329.35748 185.798425 
" style="fill:none;stroke:#b0b0b0;stroke-linecap:square;stroke-width:0.8;"/>
     </g>
     <g id="line2d_12">
      <defs>
       <path d="M 0 0 
L -3.5 0 
" id="mcc080516df" style="stroke:#000000;stroke-width:0.8;"/>
      </defs>
      <g>
       <use style="stroke:#000000;stroke-width:0.8;" x="55.675" xlink:href="#mcc080516df" y="185.798425"/>
      </g>
     </g>
     <g id="text_6">
      <!-- −2.0 -->
      <g transform="translate(28.934375 189.377331)scale(0.1 -0.1)">
       <defs>
        <path d="M 52.828125 31.203125 
L 5.5625 31.203125 
L 5.5625 39.40625 
L 52.828125 39.40625 
z
" id="ArialMT-8722"/>
        <path d="M 9.078125 0 
L 9.078125 10.015625 
L 19.09375 10.015625 
L 19.09375 0 
z
" id="ArialMT-46"/>
       </defs>
       <use xlink:href="#ArialMT-8722"/>
       <use x="58.398438" xlink:href="#ArialMT-50"/>
       <use x="114.013672" xlink:href="#ArialMT-46"/>
       <use x="141.796875" xlink:href="#ArialMT-48"/>
      </g>
     </g>
    </g>
    <g id="ytick_2">
     <g id="line2d_13">
      <path clip-path="url(#p5dd930fe09)" d="M 55.675 142.923819 
L 329.35748 142.923819 
" style="fill:none;stroke:#b0b0b0;stroke-linecap:square;stroke-width:0.8;"/>
     </g>
     <g id="line2d_14">
      <g>
       <use style="stroke:#000000;stroke-width:0.8;" x="55.675" xlink:href="#mcc080516df" y="142.923819"/>
      </g>
     </g>
     <g id="text_7">
      <!-- −1.5 -->
      <g transform="translate(28.934375 146.502725)scale(0.1 -0.1)">
       <use xlink:href="#ArialMT-8722"/>
       <use x="58.398438" xlink:href="#ArialMT-49"/>
       <use x="114.013672" xlink:href="#ArialMT-46"/>
       <use x="141.796875" xlink:href="#ArialMT-53"/>
      </g>
     </g>
    </g>
    <g id="ytick_3">
     <g id="line2d_15">
      <path clip-path="url(#p5dd930fe09)" d="M 55.675 100.049213 
L 329.35748 100.049213 
" style="fill:none;stroke:#b0b0b0;stroke-linecap:square;stroke-width:0.8;"/>
     </g>
     <g id="line2d_16">
      <g>
       <use style="stroke:#000000;stroke-width:0.8;" x="55.675" xlink:href="#mcc080516df" y="100.049213"/>
      </g>
     </g>
     <g id="text_8">
      <!-- −1.0 -->
      <g transform="translate(28.934375 103.628119)scale(0.1 -0.1)">
       <use xlink:href="#ArialMT-8722"/>
       <use x="58.398438" xlink:href="#ArialMT-49"/>
       <use x="114.013672" xlink:href="#ArialMT-46"/>
       <use x="141.796875" xlink:href="#ArialMT-48"/>
      </g>
     </g>
    </g>
    <g id="ytick_4">
     <g id="line2d_17">
      <path clip-path="url(#p5dd930fe09)" d="M 55.675 57.174606 
L 329.35748 57.174606 
" style="fill:none;stroke:#b0b0b0;stroke-linecap:square;stroke-width:0.8;"/>
     </g>
     <g id="line2d_18">
      <g>
       <use style="stroke:#000000;stroke-width:0.8;" x="55.675" xlink:href="#mcc080516df" y="57.174606"/>
      </g>
     </g>
     <g id="text_9">
      <!-- −0.5 -->
      <g transform="translate(28.934375 60.753513)scale(0.1 -0.1)">
       <use xlink:href="#ArialMT-8722"/>
       <use x="58.398438" xlink:href="#ArialMT-48"/>
       <use x="114.013672" xlink:href="#ArialMT-46"/>
       <use x="141.796875" xlink:href="#ArialMT-53"/>
      </g>
     </g>
    </g>
    <g id="ytick_5">
     <g id="line2d_19">
      <path clip-path="url(#p5dd930fe09)" d="M 55.675 14.3 
L 329.35748 14.3 
" style="fill:none;stroke:#b0b0b0;stroke-linecap:square;stroke-width:0.8;"/>
     </g>
     <g id="line2d_20">
      <g>
       <use style="stroke:#000000;stroke-width:0.8;" x="55.675" xlink:href="#mcc080516df" y="14.3"/>
      </g>
     </g>
     <g id="text_10">
      <!-- 0.0 -->
      <g transform="translate(34.775 17.878906)scale(0.1 -0.1)">
       <use xlink:href="#ArialMT-48"/>
       <use x="55.615234" xlink:href="#ArialMT-46"/>
       <use x="83.398438" xlink:href="#ArialMT-48"/>
      </g>
     </g>
    </g>
    <g id="text_11">
     <!-- $Log_{10}$ Probability -->
     <g transform="translate(22.734375 138.399213)rotate(-90)scale(0.1 -0.1)">
      <defs>
       <path d="M 16.796875 72.90625 
L 26.703125 72.90625 
L 14.203125 8.203125 
L 49.703125 8.203125 
L 48.09375 0 
L 2.6875 0 
z
" id="DejaVuSans-Oblique-76"/>
       <path d="M 25.390625 -1.421875 
Q 15.765625 -1.421875 10.171875 4.515625 
Q 4.59375 10.453125 4.59375 20.703125 
Q 4.59375 26.65625 6.515625 32.828125 
Q 8.453125 39.015625 11.53125 43.21875 
Q 16.359375 49.75 22.3125 52.875 
Q 28.265625 56 35.796875 56 
Q 45.125 56 50.859375 50.1875 
Q 56.59375 44.390625 56.59375 35.015625 
Q 56.59375 28.515625 54.6875 22.0625 
Q 52.78125 15.625 49.703125 11.375 
Q 44.921875 4.828125 38.96875 1.703125 
Q 33.015625 -1.421875 25.390625 -1.421875 
z
M 13.921875 21 
Q 13.921875 13.578125 17.015625 9.890625 
Q 20.125 6.203125 26.421875 6.203125 
Q 35.453125 6.203125 41.375 14.078125 
Q 47.3125 21.96875 47.3125 34.078125 
Q 47.3125 41.15625 44.140625 44.765625 
Q 40.96875 48.390625 34.8125 48.390625 
Q 29.734375 48.390625 25.78125 46.015625 
Q 21.828125 43.65625 18.703125 38.8125 
Q 16.40625 35.203125 15.15625 30.5625 
Q 13.921875 25.921875 13.921875 21 
z
" id="DejaVuSans-Oblique-111"/>
       <path d="M 59.625 54.6875 
L 50.296875 6.78125 
Q 47.609375 -7.125 40.015625 -13.953125 
Q 32.421875 -20.796875 19.578125 -20.796875 
Q 14.84375 -20.796875 10.78125 -20.09375 
Q 6.734375 -19.390625 3.21875 -17.921875 
L 4.890625 -9.1875 
Q 8.203125 -11.328125 11.90625 -12.34375 
Q 15.625 -13.375 19.828125 -13.375 
Q 28.375 -13.375 33.859375 -8.703125 
Q 39.359375 -4.046875 41.109375 4.6875 
L 41.890625 8.796875 
Q 38.140625 4.5 33.15625 2.25 
Q 28.171875 0 22.40625 0 
Q 14.109375 0 9.34375 5.484375 
Q 4.59375 10.984375 4.59375 20.609375 
Q 4.59375 28.171875 7.46875 35.421875 
Q 10.359375 42.671875 15.578125 48.296875 
Q 19.046875 52 23.65625 54 
Q 28.265625 56 33.296875 56 
Q 38.8125 56 42.90625 53.4375 
Q 47.015625 50.875 49.03125 46.1875 
L 50.59375 54.6875 
z
M 46.09375 34.625 
Q 46.09375 41.265625 42.96875 44.875 
Q 39.84375 48.484375 34.078125 48.484375 
Q 30.515625 48.484375 27.296875 47.0625 
Q 24.078125 45.65625 21.78125 43.109375 
Q 18.0625 38.921875 15.984375 33.234375 
Q 13.921875 27.546875 13.921875 21.484375 
Q 13.921875 14.75 17.0625 11.125 
Q 20.21875 7.515625 26.125 7.515625 
Q 34.671875 7.515625 40.375 15.25 
Q 46.09375 23 46.09375 34.625 
z
" id="DejaVuSans-Oblique-103"/>
       <path d="M 12.40625 8.296875 
L 28.515625 8.296875 
L 28.515625 63.921875 
L 10.984375 60.40625 
L 10.984375 69.390625 
L 28.421875 72.90625 
L 38.28125 72.90625 
L 38.28125 8.296875 
L 54.390625 8.296875 
L 54.390625 0 
L 12.40625 0 
z
" id="DejaVuSans-49"/>
       <path d="M 31.78125 66.40625 
Q 24.171875 66.40625 20.328125 58.90625 
Q 16.5 51.421875 16.5 36.375 
Q 16.5 21.390625 20.328125 13.890625 
Q 24.171875 6.390625 31.78125 6.390625 
Q 39.453125 6.390625 43.28125 13.890625 
Q 47.125 21.390625 47.125 36.375 
Q 47.125 51.421875 43.28125 58.90625 
Q 39.453125 66.40625 31.78125 66.40625 
z
M 31.78125 74.21875 
Q 44.046875 74.21875 50.515625 64.515625 
Q 56.984375 54.828125 56.984375 36.375 
Q 56.984375 17.96875 50.515625 8.265625 
Q 44.046875 -1.421875 31.78125 -1.421875 
Q 19.53125 -1.421875 13.0625 8.265625 
Q 6.59375 17.96875 6.59375 36.375 
Q 6.59375 54.828125 13.0625 64.515625 
Q 19.53125 74.21875 31.78125 74.21875 
z
" id="DejaVuSans-48"/>
       <path id="ArialMT-32"/>
       <path d="M 7.71875 0 
L 7.71875 71.578125 
L 34.71875 71.578125 
Q 41.84375 71.578125 45.609375 70.90625 
Q 50.875 70.015625 54.4375 67.546875 
Q 58.015625 65.09375 60.1875 60.640625 
Q 62.359375 56.203125 62.359375 50.875 
Q 62.359375 41.75 56.546875 35.421875 
Q 50.734375 29.109375 35.546875 29.109375 
L 17.1875 29.109375 
L 17.1875 0 
z
M 17.1875 37.546875 
L 35.6875 37.546875 
Q 44.875 37.546875 48.734375 40.96875 
Q 52.59375 44.390625 52.59375 50.59375 
Q 52.59375 55.078125 50.3125 58.265625 
Q 48.046875 61.46875 44.34375 62.5 
Q 41.9375 63.140625 35.5 63.140625 
L 17.1875 63.140625 
z
" id="ArialMT-80"/>
       <path d="M 6.5 0 
L 6.5 51.859375 
L 14.40625 51.859375 
L 14.40625 44 
Q 17.4375 49.515625 20 51.265625 
Q 22.5625 53.03125 25.640625 53.03125 
Q 30.078125 53.03125 34.671875 50.203125 
L 31.640625 42.046875 
Q 28.421875 43.953125 25.203125 43.953125 
Q 22.3125 43.953125 20.015625 42.21875 
Q 17.71875 40.484375 16.75 37.40625 
Q 15.28125 32.71875 15.28125 27.15625 
L 15.28125 0 
z
" id="ArialMT-114"/>
       <path d="M 3.328125 25.921875 
Q 3.328125 40.328125 11.328125 47.265625 
Q 18.015625 53.03125 27.640625 53.03125 
Q 38.328125 53.03125 45.109375 46.015625 
Q 51.90625 39.015625 51.90625 26.65625 
Q 51.90625 16.65625 48.90625 10.90625 
Q 45.90625 5.171875 40.15625 2 
Q 34.421875 -1.171875 27.640625 -1.171875 
Q 16.75 -1.171875 10.03125 5.8125 
Q 3.328125 12.796875 3.328125 25.921875 
z
M 12.359375 25.921875 
Q 12.359375 15.96875 16.703125 11.015625 
Q 21.046875 6.0625 27.640625 6.0625 
Q 34.1875 6.0625 38.53125 11.03125 
Q 42.875 16.015625 42.875 26.21875 
Q 42.875 35.84375 38.5 40.796875 
Q 34.125 45.75 27.640625 45.75 
Q 21.046875 45.75 16.703125 40.8125 
Q 12.359375 35.890625 12.359375 25.921875 
z
" id="ArialMT-111"/>
       <path d="M 14.703125 0 
L 6.546875 0 
L 6.546875 71.578125 
L 15.328125 71.578125 
L 15.328125 46.046875 
Q 20.90625 53.03125 29.546875 53.03125 
Q 34.328125 53.03125 38.59375 51.09375 
Q 42.875 49.171875 45.625 45.671875 
Q 48.390625 42.1875 49.953125 37.25 
Q 51.515625 32.328125 51.515625 26.703125 
Q 51.515625 13.375 44.921875 6.09375 
Q 38.328125 -1.171875 29.109375 -1.171875 
Q 19.921875 -1.171875 14.703125 6.5 
z
M 14.59375 26.3125 
Q 14.59375 17 17.140625 12.84375 
Q 21.296875 6.0625 28.375 6.0625 
Q 34.125 6.0625 38.328125 11.0625 
Q 42.53125 16.0625 42.53125 25.984375 
Q 42.53125 36.140625 38.5 40.96875 
Q 34.46875 45.796875 28.765625 45.796875 
Q 23 45.796875 18.796875 40.796875 
Q 14.59375 35.796875 14.59375 26.3125 
z
" id="ArialMT-98"/>
       <path d="M 40.4375 6.390625 
Q 35.546875 2.25 31.03125 0.53125 
Q 26.515625 -1.171875 21.34375 -1.171875 
Q 12.796875 -1.171875 8.203125 3 
Q 3.609375 7.171875 3.609375 13.671875 
Q 3.609375 17.484375 5.34375 20.625 
Q 7.078125 23.78125 9.890625 25.6875 
Q 12.703125 27.59375 16.21875 28.5625 
Q 18.796875 29.25 24.03125 29.890625 
Q 34.671875 31.15625 39.703125 32.90625 
Q 39.75 34.71875 39.75 35.203125 
Q 39.75 40.578125 37.25 42.78125 
Q 33.890625 45.75 27.25 45.75 
Q 21.046875 45.75 18.09375 43.578125 
Q 15.140625 41.40625 13.71875 35.890625 
L 5.125 37.0625 
Q 6.296875 42.578125 8.984375 45.96875 
Q 11.671875 49.359375 16.75 51.1875 
Q 21.828125 53.03125 28.515625 53.03125 
Q 35.15625 53.03125 39.296875 51.46875 
Q 43.453125 49.90625 45.40625 47.53125 
Q 47.359375 45.171875 48.140625 41.546875 
Q 48.578125 39.3125 48.578125 33.453125 
L 48.578125 21.734375 
Q 48.578125 9.46875 49.140625 6.21875 
Q 49.703125 2.984375 51.375 0 
L 42.1875 0 
Q 40.828125 2.734375 40.4375 6.390625 
z
M 39.703125 26.03125 
Q 34.90625 24.078125 25.34375 22.703125 
Q 19.921875 21.921875 17.671875 20.9375 
Q 15.4375 19.96875 14.203125 18.09375 
Q 12.984375 16.21875 12.984375 13.921875 
Q 12.984375 10.40625 15.640625 8.0625 
Q 18.3125 5.71875 23.4375 5.71875 
Q 28.515625 5.71875 32.46875 7.9375 
Q 36.421875 10.15625 38.28125 14.015625 
Q 39.703125 17 39.703125 22.796875 
z
" id="ArialMT-97"/>
       <path d="M 6.640625 61.46875 
L 6.640625 71.578125 
L 15.4375 71.578125 
L 15.4375 61.46875 
z
M 6.640625 0 
L 6.640625 51.859375 
L 15.4375 51.859375 
L 15.4375 0 
z
" id="ArialMT-105"/>
       <path d="M 6.390625 0 
L 6.390625 71.578125 
L 15.1875 71.578125 
L 15.1875 0 
z
" id="ArialMT-108"/>
       <path d="M 25.78125 7.859375 
L 27.046875 0.09375 
Q 23.34375 -0.6875 20.40625 -0.6875 
Q 15.625 -0.6875 12.984375 0.828125 
Q 10.359375 2.34375 9.28125 4.8125 
Q 8.203125 7.28125 8.203125 15.1875 
L 8.203125 45.015625 
L 1.765625 45.015625 
L 1.765625 51.859375 
L 8.203125 51.859375 
L 8.203125 64.703125 
L 16.9375 69.96875 
L 16.9375 51.859375 
L 25.78125 51.859375 
L 25.78125 45.015625 
L 16.9375 45.015625 
L 16.9375 14.703125 
Q 16.9375 10.9375 17.40625 9.859375 
Q 17.875 8.796875 18.921875 8.15625 
Q 19.96875 7.515625 21.921875 7.515625 
Q 23.390625 7.515625 25.78125 7.859375 
z
" id="ArialMT-116"/>
       <path d="M 6.203125 -19.96875 
L 5.21875 -11.71875 
Q 8.109375 -12.5 10.25 -12.5 
Q 13.1875 -12.5 14.9375 -11.515625 
Q 16.703125 -10.546875 17.828125 -8.796875 
Q 18.65625 -7.46875 20.515625 -2.25 
Q 20.75 -1.515625 21.296875 -0.09375 
L 1.609375 51.859375 
L 11.078125 51.859375 
L 21.875 21.828125 
Q 23.96875 16.109375 25.640625 9.8125 
Q 27.15625 15.875 29.25 21.625 
L 40.328125 51.859375 
L 49.125 51.859375 
L 29.390625 -0.875 
Q 26.21875 -9.421875 24.46875 -12.640625 
Q 22.125 -17 19.09375 -19.015625 
Q 16.0625 -21.046875 11.859375 -21.046875 
Q 9.328125 -21.046875 6.203125 -19.96875 
z
" id="ArialMT-121"/>
      </defs>
      <use transform="translate(0 0.09375)" xlink:href="#DejaVuSans-Oblique-76"/>
      <use transform="translate(55.712891 0.09375)" xlink:href="#DejaVuSans-Oblique-111"/>
      <use transform="translate(116.894531 0.09375)" xlink:href="#DejaVuSans-Oblique-103"/>
      <use transform="translate(180.371094 -16.3125)scale(0.7)" xlink:href="#DejaVuSans-49"/>
      <use transform="translate(224.907227 -16.3125)scale(0.7)" xlink:href="#DejaVuSans-48"/>
      <use transform="translate(272.177734 0.09375)" xlink:href="#ArialMT-32"/>
      <use transform="translate(299.960938 0.09375)" xlink:href="#ArialMT-80"/>
      <use transform="translate(366.660156 0.09375)" xlink:href="#ArialMT-114"/>
      <use transform="translate(399.960938 0.09375)" xlink:href="#ArialMT-111"/>
      <use transform="translate(455.576172 0.09375)" xlink:href="#ArialMT-98"/>
      <use transform="translate(511.191406 0.09375)" xlink:href="#ArialMT-97"/>
      <use transform="translate(566.806641 0.09375)" xlink:href="#ArialMT-98"/>
      <use transform="translate(622.421875 0.09375)" xlink:href="#ArialMT-105"/>
      <use transform="translate(644.638672 0.09375)" xlink:href="#ArialMT-108"/>
      <use transform="translate(666.855469 0.09375)" xlink:href="#ArialMT-105"/>
      <use transform="translate(689.072266 0.09375)" xlink:href="#ArialMT-116"/>
      <use transform="translate(716.855469 0.09375)" xlink:href="#ArialMT-121"/>
     </g>
    </g>
   </g>
   <g id="line2d_21">
    <path clip-path="url(#p5dd930fe09)" d="M 68.629986 213.598425 
L 71.865901 150.759569 
L 73.116163 133.994359 
L 74.366426 123.730435 
L 75.616688 117.576776 
L 76.866951 113.713539 
L 78.117213 111.278958 
L 79.367476 109.668919 
L 80.617739 108.667121 
L 81.868001 108.221629 
L 83.118264 108.238022 
L 84.368526 108.552141 
L 85.618789 109.078876 
L 86.869052 109.759549 
L 88.119314 110.614429 
L 90.619839 112.822021 
L 93.120364 115.506401 
L 95.62089 118.51291 
L 98.121415 121.85202 
L 101.872203 127.368102 
L 105.62299 133.311213 
L 109.373778 139.626963 
L 114.374828 148.610259 
L 119.375879 158.210773 
L 126.877454 173.202694 
L 141.880605 203.193574 
L 147.146081 213.598425 
L 147.146081 213.598425 
" style="fill:none;stroke:#000000;stroke-linecap:square;stroke-width:1.5;"/>
   </g>
   <g id="line2d_22">
    <path clip-path="url(#p5dd930fe09)" d="M 68.115113 138.431932 
L 71.865901 127.577771 
L 74.366426 121.045704 
L 76.866951 115.54854 
L 79.367476 110.960086 
L 81.868001 107.139343 
L 84.368526 103.79939 
L 86.869052 100.788114 
L 89.369577 98.123963 
L 91.870102 95.753475 
L 94.370627 93.717149 
L 96.871152 92.064547 
L 99.371677 90.734182 
L 101.872203 89.694072 
L 104.372728 88.921461 
L 106.873253 88.421458 
L 109.373778 88.116158 
L 111.874303 88.001038 
L 114.374828 88.112348 
L 118.125616 88.569969 
L 121.876404 89.341109 
L 125.627192 90.362392 
L 133.128767 92.523861 
L 140.630343 94.370615 
L 145.631393 95.397562 
L 153.132969 96.649191 
L 160.634544 97.694695 
L 169.386382 98.667657 
L 213.145573 103.087909 
L 224.397936 104.572064 
L 235.650299 106.260772 
L 246.902663 108.138985 
L 259.405289 110.429681 
L 274.40844 113.402333 
L 291.912116 117.128654 
L 309.415792 121.068772 
L 316.917368 122.810391 
L 316.917368 122.810391 
" style="fill:none;stroke:#000000;stroke-dasharray:6,2.25;stroke-dashoffset:0;stroke-width:1.5;"/>
   </g>
   <g id="line2d_23">
    <path clip-path="url(#p5dd930fe09)" d="M 68.115113 202.637682 
L 96.871152 183.711995 
L 125.627192 164.799258 
L 138.129818 156.942877 
L 146.881656 151.700066 
L 155.633494 146.735972 
L 161.884807 143.385242 
L 168.13612 140.278296 
L 174.387433 137.433786 
L 179.388483 135.360804 
L 185.639796 133.007399 
L 190.640846 131.365558 
L 195.641897 129.911557 
L 201.89321 128.370208 
L 206.89426 127.375715 
L 211.89531 126.630255 
L 216.896361 126.113683 
L 221.897411 125.806311 
L 226.898461 125.740648 
L 231.899512 125.94272 
L 236.900562 126.439857 
L 241.901612 127.220073 
L 245.6524 127.99814 
L 249.403188 128.988557 
L 253.153976 130.187357 
L 256.904763 131.596817 
L 260.655551 133.285395 
L 264.406339 135.259684 
L 268.157127 137.487107 
L 271.907914 139.945731 
L 276.908965 143.523263 
L 281.910015 147.346366 
L 288.161328 152.421392 
L 295.662904 158.80295 
L 313.16658 174.151141 
L 316.917368 177.488213 
L 316.917368 177.488213 
" style="fill:none;stroke:#000000;stroke-dasharray:1.5,1.5;stroke-dashoffset:0;stroke-width:1.5;"/>
   </g>
   <g id="line2d_24"/>
   <g id="line2d_25"/>
   <g id="line2d_26"/>
   <g id="patch_3">
    <path d="M 55.675 185.798425 
L 55.675 14.3 
" style="fill:none;stroke:#000000;stroke-linecap:square;stroke-linejoin:miter;stroke-width:0.8;"/>
   </g>
   <g id="patch_4">
    <path d="M 329.35748 185.798425 
L 329.35748 14.3 
" style="fill:none;stroke:#000000;stroke-linecap:square;stroke-linejoin:miter;stroke-width:0.8;"/>
   </g>
   <g id="patch_5">
    <path d="M 55.675 185.798425 
L 329.35748 185.798425 
" style="fill:none;stroke:#000000;stroke-linecap:square;stroke-linejoin:miter;stroke-width:0.8;"/>
   </g>
   <g id="patch_6">
    <path d="M 55.675 14.3 
L 329.35748 14.3 
" style="fill:none;stroke:#000000;stroke-linecap:square;stroke-linejoin:miter;stroke-width:0.8;"/>
   </g>
   <g id="legend_1">
    <g id="patch_7">
     <path d="M 219.771543 64.853125 
L 322.35748 64.853125 
Q 324.35748 64.853125 324.35748 62.853125 
L 324.35748 21.3 
Q 324.35748 19.3 322.35748 19.3 
L 219.771543 19.3 
Q 217.771543 19.3 217.771543 21.3 
L 217.771543 62.853125 
Q 217.771543 64.853125 219.771543 64.853125 
z
" style="fill:#ffffff;opacity:0.8;stroke:#cccccc;stroke-linejoin:miter;"/>
    </g>
    <g id="line2d_27">
     <path d="M 221.771543 26.957812 
L 241.771543 26.957812 
" style="fill:none;stroke:#333333;stroke-linecap:square;stroke-width:1.5;"/>
    </g>
    <g id="line2d_28"/>
    <g id="text_12">
     <!-- mean_pat_age -->
     <g transform="translate(249.771543 30.457812)scale(0.1 -0.1)">
      <defs>
       <path d="M 6.59375 0 
L 6.59375 51.859375 
L 14.453125 51.859375 
L 14.453125 44.578125 
Q 16.890625 48.390625 20.9375 50.703125 
Q 25 53.03125 30.171875 53.03125 
Q 35.9375 53.03125 39.625 50.640625 
Q 43.3125 48.25 44.828125 43.953125 
Q 50.984375 53.03125 60.84375 53.03125 
Q 68.5625 53.03125 72.703125 48.75 
Q 76.859375 44.484375 76.859375 35.59375 
L 76.859375 0 
L 68.109375 0 
L 68.109375 32.671875 
Q 68.109375 37.9375 67.25 40.25 
Q 66.40625 42.578125 64.15625 43.984375 
Q 61.921875 45.40625 58.890625 45.40625 
Q 53.421875 45.40625 49.796875 41.765625 
Q 46.1875 38.140625 46.1875 30.125 
L 46.1875 0 
L 37.40625 0 
L 37.40625 33.6875 
Q 37.40625 39.546875 35.25 42.46875 
Q 33.109375 45.40625 28.21875 45.40625 
Q 24.515625 45.40625 21.359375 43.453125 
Q 18.21875 41.5 16.796875 37.734375 
Q 15.375 33.984375 15.375 26.90625 
L 15.375 0 
z
" id="ArialMT-109"/>
       <path d="M 42.09375 16.703125 
L 51.171875 15.578125 
Q 49.03125 7.625 43.21875 3.21875 
Q 37.40625 -1.171875 28.375 -1.171875 
Q 17 -1.171875 10.328125 5.828125 
Q 3.65625 12.84375 3.65625 25.484375 
Q 3.65625 38.578125 10.390625 45.796875 
Q 17.140625 53.03125 27.875 53.03125 
Q 38.28125 53.03125 44.875 45.953125 
Q 51.46875 38.875 51.46875 26.03125 
Q 51.46875 25.25 51.421875 23.6875 
L 12.75 23.6875 
Q 13.234375 15.140625 17.578125 10.59375 
Q 21.921875 6.0625 28.421875 6.0625 
Q 33.25 6.0625 36.671875 8.59375 
Q 40.09375 11.140625 42.09375 16.703125 
z
M 13.234375 30.90625 
L 42.1875 30.90625 
Q 41.609375 37.453125 38.875 40.71875 
Q 34.671875 45.796875 27.984375 45.796875 
Q 21.921875 45.796875 17.796875 41.75 
Q 13.671875 37.703125 13.234375 30.90625 
z
" id="ArialMT-101"/>
       <path d="M 6.59375 0 
L 6.59375 51.859375 
L 14.5 51.859375 
L 14.5 44.484375 
Q 20.21875 53.03125 31 53.03125 
Q 35.6875 53.03125 39.625 51.34375 
Q 43.5625 49.65625 45.515625 46.921875 
Q 47.46875 44.1875 48.25 40.4375 
Q 48.734375 37.984375 48.734375 31.890625 
L 48.734375 0 
L 39.9375 0 
L 39.9375 31.546875 
Q 39.9375 36.921875 38.90625 39.578125 
Q 37.890625 42.234375 35.28125 43.8125 
Q 32.671875 45.40625 29.15625 45.40625 
Q 23.53125 45.40625 19.453125 41.84375 
Q 15.375 38.28125 15.375 28.328125 
L 15.375 0 
z
" id="ArialMT-110"/>
       <path d="M -1.515625 -19.875 
L -1.515625 -13.53125 
L 56.734375 -13.53125 
L 56.734375 -19.875 
z
" id="ArialMT-95"/>
       <path d="M 6.59375 -19.875 
L 6.59375 51.859375 
L 14.59375 51.859375 
L 14.59375 45.125 
Q 17.4375 49.078125 21 51.046875 
Q 24.5625 53.03125 29.640625 53.03125 
Q 36.28125 53.03125 41.359375 49.609375 
Q 46.4375 46.1875 49.015625 39.953125 
Q 51.609375 33.734375 51.609375 26.3125 
Q 51.609375 18.359375 48.75 11.984375 
Q 45.90625 5.609375 40.453125 2.21875 
Q 35.015625 -1.171875 29 -1.171875 
Q 24.609375 -1.171875 21.109375 0.6875 
Q 17.625 2.546875 15.375 5.375 
L 15.375 -19.875 
z
M 14.546875 25.640625 
Q 14.546875 15.625 18.59375 10.84375 
Q 22.65625 6.0625 28.421875 6.0625 
Q 34.28125 6.0625 38.453125 11.015625 
Q 42.625 15.96875 42.625 26.375 
Q 42.625 36.28125 38.546875 41.203125 
Q 34.46875 46.140625 28.8125 46.140625 
Q 23.1875 46.140625 18.859375 40.890625 
Q 14.546875 35.640625 14.546875 25.640625 
z
" id="ArialMT-112"/>
       <path d="M 4.984375 -4.296875 
L 13.53125 -5.5625 
Q 14.0625 -9.515625 16.5 -11.328125 
Q 19.78125 -13.765625 25.4375 -13.765625 
Q 31.546875 -13.765625 34.859375 -11.328125 
Q 38.1875 -8.890625 39.359375 -4.5 
Q 40.046875 -1.8125 39.984375 6.78125 
Q 34.234375 0 25.640625 0 
Q 14.9375 0 9.078125 7.71875 
Q 3.21875 15.4375 3.21875 26.21875 
Q 3.21875 33.640625 5.90625 39.90625 
Q 8.59375 46.1875 13.6875 49.609375 
Q 18.796875 53.03125 25.6875 53.03125 
Q 34.859375 53.03125 40.828125 45.609375 
L 40.828125 51.859375 
L 48.921875 51.859375 
L 48.921875 7.03125 
Q 48.921875 -5.078125 46.453125 -10.125 
Q 44 -15.1875 38.640625 -18.109375 
Q 33.296875 -21.046875 25.484375 -21.046875 
Q 16.21875 -21.046875 10.5 -16.875 
Q 4.78125 -12.703125 4.984375 -4.296875 
z
M 12.25 26.859375 
Q 12.25 16.65625 16.296875 11.96875 
Q 20.359375 7.28125 26.46875 7.28125 
Q 32.515625 7.28125 36.609375 11.9375 
Q 40.71875 16.609375 40.71875 26.5625 
Q 40.71875 36.078125 36.5 40.90625 
Q 32.28125 45.75 26.3125 45.75 
Q 20.453125 45.75 16.34375 40.984375 
Q 12.25 36.234375 12.25 26.859375 
z
" id="ArialMT-103"/>
      </defs>
      <use xlink:href="#ArialMT-109"/>
      <use x="83.300781" xlink:href="#ArialMT-101"/>
      <use x="138.916016" xlink:href="#ArialMT-97"/>
      <use x="194.53125" xlink:href="#ArialMT-110"/>
      <use x="250.146484" xlink:href="#ArialMT-95"/>
      <use x="305.761719" xlink:href="#ArialMT-112"/>
      <use x="361.376953" xlink:href="#ArialMT-97"/>
      <use x="416.992188" xlink:href="#ArialMT-116"/>
      <use x="444.775391" xlink:href="#ArialMT-95"/>
      <use x="500.390625" xlink:href="#ArialMT-97"/>
      <use x="556.005859" xlink:href="#ArialMT-103"/>
      <use x="611.621094" xlink:href="#ArialMT-101"/>
     </g>
    </g>
    <g id="line2d_29">
     <path d="M 221.771543 41.220312 
L 241.771543 41.220312 
" style="fill:none;stroke:#333333;stroke-dasharray:6,2.25;stroke-dashoffset:0;stroke-width:1.5;"/>
    </g>
    <g id="line2d_30"/>
    <g id="text_13">
     <!-- radicalness -->
     <g transform="translate(249.771543 44.720312)scale(0.1 -0.1)">
      <defs>
       <path d="M 40.234375 0 
L 40.234375 6.546875 
Q 35.296875 -1.171875 25.734375 -1.171875 
Q 19.53125 -1.171875 14.328125 2.25 
Q 9.125 5.671875 6.265625 11.796875 
Q 3.421875 17.921875 3.421875 25.875 
Q 3.421875 33.640625 6 39.96875 
Q 8.59375 46.296875 13.765625 49.65625 
Q 18.953125 53.03125 25.34375 53.03125 
Q 30.03125 53.03125 33.6875 51.046875 
Q 37.359375 49.078125 39.65625 45.90625 
L 39.65625 71.578125 
L 48.390625 71.578125 
L 48.390625 0 
z
M 12.453125 25.875 
Q 12.453125 15.921875 16.640625 10.984375 
Q 20.84375 6.0625 26.5625 6.0625 
Q 32.328125 6.0625 36.34375 10.765625 
Q 40.375 15.484375 40.375 25.140625 
Q 40.375 35.796875 36.265625 40.765625 
Q 32.171875 45.75 26.171875 45.75 
Q 20.3125 45.75 16.375 40.96875 
Q 12.453125 36.1875 12.453125 25.875 
z
" id="ArialMT-100"/>
       <path d="M 40.4375 19 
L 49.078125 17.875 
Q 47.65625 8.9375 41.8125 3.875 
Q 35.984375 -1.171875 27.484375 -1.171875 
Q 16.84375 -1.171875 10.375 5.78125 
Q 3.90625 12.75 3.90625 25.734375 
Q 3.90625 34.125 6.6875 40.421875 
Q 9.46875 46.734375 15.15625 49.875 
Q 20.84375 53.03125 27.546875 53.03125 
Q 35.984375 53.03125 41.359375 48.75 
Q 46.734375 44.484375 48.25 36.625 
L 39.703125 35.296875 
Q 38.484375 40.53125 35.375 43.15625 
Q 32.28125 45.796875 27.875 45.796875 
Q 21.234375 45.796875 17.078125 41.03125 
Q 12.9375 36.28125 12.9375 25.984375 
Q 12.9375 15.53125 16.9375 10.796875 
Q 20.953125 6.0625 27.390625 6.0625 
Q 32.5625 6.0625 36.03125 9.234375 
Q 39.5 12.40625 40.4375 19 
z
" id="ArialMT-99"/>
       <path d="M 3.078125 15.484375 
L 11.765625 16.84375 
Q 12.5 11.625 15.84375 8.84375 
Q 19.1875 6.0625 25.203125 6.0625 
Q 31.25 6.0625 34.171875 8.515625 
Q 37.109375 10.984375 37.109375 14.3125 
Q 37.109375 17.28125 34.515625 19 
Q 32.71875 20.171875 25.53125 21.96875 
Q 15.875 24.421875 12.140625 26.203125 
Q 8.40625 27.984375 6.46875 31.125 
Q 4.546875 34.28125 4.546875 38.09375 
Q 4.546875 41.546875 6.125 44.5 
Q 7.71875 47.46875 10.453125 49.421875 
Q 12.5 50.921875 16.03125 51.96875 
Q 19.578125 53.03125 23.640625 53.03125 
Q 29.734375 53.03125 34.34375 51.265625 
Q 38.96875 49.515625 41.15625 46.5 
Q 43.359375 43.5 44.1875 38.484375 
L 35.59375 37.3125 
Q 35.015625 41.3125 32.203125 43.546875 
Q 29.390625 45.796875 24.265625 45.796875 
Q 18.21875 45.796875 15.625 43.796875 
Q 13.03125 41.796875 13.03125 39.109375 
Q 13.03125 37.40625 14.109375 36.03125 
Q 15.1875 34.625 17.484375 33.6875 
Q 18.796875 33.203125 25.25 31.453125 
Q 34.578125 28.953125 38.25 27.359375 
Q 41.9375 25.78125 44.03125 22.75 
Q 46.140625 19.734375 46.140625 15.234375 
Q 46.140625 10.84375 43.578125 6.953125 
Q 41.015625 3.078125 36.171875 0.953125 
Q 31.34375 -1.171875 25.25 -1.171875 
Q 15.140625 -1.171875 9.84375 3.03125 
Q 4.546875 7.234375 3.078125 15.484375 
z
" id="ArialMT-115"/>
      </defs>
      <use xlink:href="#ArialMT-114"/>
      <use x="33.300781" xlink:href="#ArialMT-97"/>
      <use x="88.916016" xlink:href="#ArialMT-100"/>
      <use x="144.53125" xlink:href="#ArialMT-105"/>
      <use x="166.748047" xlink:href="#ArialMT-99"/>
      <use x="216.748047" xlink:href="#ArialMT-97"/>
      <use x="272.363281" xlink:href="#ArialMT-108"/>
      <use x="294.580078" xlink:href="#ArialMT-110"/>
      <use x="350.195312" xlink:href="#ArialMT-101"/>
      <use x="405.810547" xlink:href="#ArialMT-115"/>
      <use x="455.810547" xlink:href="#ArialMT-115"/>
     </g>
    </g>
    <g id="line2d_31">
     <path d="M 221.771543 55.365625 
L 241.771543 55.365625 
" style="fill:none;stroke:#333333;stroke-dasharray:1.5,1.5;stroke-dashoffset:0;stroke-width:1.5;"/>
    </g>
    <g id="line2d_32"/>
    <g id="text_14">
     <!-- mean_sem_dist -->
     <g transform="translate(249.771543 58.865625)scale(0.1 -0.1)">
      <use xlink:href="#ArialMT-109"/>
      <use x="83.300781" xlink:href="#ArialMT-101"/>
      <use x="138.916016" xlink:href="#ArialMT-97"/>
      <use x="194.53125" xlink:href="#ArialMT-110"/>
      <use x="250.146484" xlink:href="#ArialMT-95"/>
      <use x="305.761719" xlink:href="#ArialMT-115"/>
      <use x="355.761719" xlink:href="#ArialMT-101"/>
      <use x="411.376953" xlink:href="#ArialMT-109"/>
      <use x="494.677734" xlink:href="#ArialMT-95"/>
      <use x="550.292969" xlink:href="#ArialMT-100"/>
      <use x="605.908203" xlink:href="#ArialMT-105"/>
      <use x="628.125" xlink:href="#ArialMT-115"/>
      <use x="678.125" xlink:href="#ArialMT-116"/>
     </g>
    </g>
   </g>
  </g>
 </g>
 <defs>
  <clipPath id="p5dd930fe09">
   <rect height="171.498425" width="273.68248" x="55.675" y="14.3"/>
  </clipPath>
 </defs>
</svg>
