<?xml version="1.0" encoding="utf-8" standalone="no"?>
<!DOCTYPE svg PUBLIC "-//W3C//DTD SVG 1.1//EN"
  "http://www.w3.org/Graphics/SVG/1.1/DTD/svg11.dtd">
<!-- Created with matplotlib (https://matplotlib.org/) -->
<svg height="212.598425pt" version="1.1" viewBox="0 0 340.15748 212.598425" width="340.15748pt" xmlns="http://www.w3.org/2000/svg" xmlns:xlink="http://www.w3.org/1999/xlink">
 <metadata>
  <rdf:RDF xmlns:cc="http://creativecommons.org/ns#" xmlns:dc="http://purl.org/dc/elements/1.1/" xmlns:rdf="http://www.w3.org/1999/02/22-rdf-syntax-ns#">
   <cc:Work>
    <dc:type rdf:resource="http://purl.org/dc/dcmitype/StillImage"/>
    <dc:date>2022-05-18T17:42:09.355246</dc:date>
    <dc:format>image/svg+xml</dc:format>
    <dc:creator>
     <cc:Agent>
      <dc:title>Matplotlib v3.3.2, https://matplotlib.org/</dc:title>
     </cc:Agent>
    </dc:creator>
   </cc:Work>
  </rdf:RDF>
 </metadata>
 <defs>
  <style type="text/css">*{stroke-linecap:butt;stroke-linejoin:round;}</style>
 </defs>
 <g id="figure_1">
  <g id="patch_1">
   <path d="M 0 212.598425 
L 340.15748 212.598425 
L 340.15748 0 
L 0 0 
z
" style="fill:#ffffff;"/>
  </g>
  <g id="axes_1">
   <g id="patch_2">
    <path d="M 55.675 185.798425 
L 329.35748 185.798425 
L 329.35748 14.3 
L 55.675 14.3 
z
" style="fill:#ffffff;"/>
   </g>
   <g id="PolyCollection_1">
    <path clip-path="url(#p1186d51cde)" d="M 68.115113 159.603807 
L 68.115113 170.599033 
L 69.365375 159.445868 
L 70.615638 148.874752 
L 71.865901 139.81574 
L 73.116163 131.974069 
L 74.366426 125.788307 
L 75.616688 121.494125 
L 76.866951 118.777699 
L 78.117213 116.913522 
L 79.367476 115.934631 
L 80.617739 115.190028 
L 81.868001 115.769263 
L 83.118264 116.14589 
L 84.368526 116.666489 
L 85.618789 118.205448 
L 86.869052 119.35104 
L 88.119314 120.841994 
L 89.369577 122.785488 
L 90.619839 124.287552 
L 91.870102 126.094946 
L 93.120364 127.724623 
L 94.370627 129.459103 
L 95.62089 131.263478 
L 96.871152 133.17326 
L 98.121415 134.765667 
L 99.371677 136.515734 
L 100.62194 138.480901 
L 101.872203 139.90172 
L 103.122465 141.634639 
L 104.372728 143.247637 
L 105.62299 145.066418 
L 106.873253 146.664453 
L 108.123516 148.429713 
L 109.373778 149.539218 
L 110.624041 151.266445 
L 111.874303 152.742023 
L 113.124566 154.166289 
L 114.374828 155.688985 
L 115.625091 157.262325 
L 116.875354 158.199361 
L 118.125616 160.225957 
L 119.375879 161.140776 
L 120.626141 162.429097 
L 121.876404 164.302398 
L 123.126667 165.377299 
L 124.376929 166.760364 
L 125.627192 168.313528 
L 126.877454 169.426864 
L 128.127717 170.557196 
L 129.37798 172.073476 
L 130.628242 173.321181 
L 131.878505 174.30022 
L 133.128767 175.865527 
L 134.37903 177.179378 
L 135.629292 178.37068 
L 136.879555 179.356459 
L 138.129818 180.608562 
L 139.38008 181.868215 
L 140.630343 183.009325 
L 141.880605 184.374041 
L 143.130868 185.340914 
L 144.381131 186.817373 
L 145.631393 187.914433 
L 146.881656 188.965987 
L 148.131918 190.33553 
L 149.382181 191.409637 
L 150.632443 192.847584 
L 151.882706 193.935338 
L 153.132969 195.078629 
L 154.383231 195.975917 
L 155.633494 197.390601 
L 156.883756 198.394267 
L 158.134019 199.582863 
L 159.384282 200.778407 
L 160.634544 201.932035 
L 161.884807 203.404271 
L 163.135069 204.288541 
L 164.385332 205.596485 
L 165.635595 206.768585 
L 166.885857 207.948674 
L 168.13612 209.21816 
L 169.386382 210.232927 
L 170.636645 211.432064 
L 171.886907 212.553886 
L 173.13717 213.987215 
L 174.387433 215.02666 
L 175.637695 216.011563 
L 176.887958 217.126917 
L 178.13822 218.554363 
L 179.388483 219.637087 
L 180.638746 221.025085 
L 181.889008 222.156183 
L 183.139271 223.338631 
L 184.389533 224.495358 
L 185.639796 225.789982 
L 186.890059 226.611943 
L 188.140321 227.864077 
L 189.390584 229.239479 
L 190.640846 230.679161 
L 191.891109 231.484229 
L 193.141371 232.672729 
L 194.391634 233.970373 
L 195.641897 235.098206 
L 196.892159 236.237083 
L 198.142422 237.572637 
L 199.392684 238.890839 
L 200.642947 239.901598 
L 201.89321 241.217035 
L 203.143472 242.260608 
L 204.393735 243.796573 
L 205.643997 244.96182 
L 206.89426 245.790537 
L 208.144522 247.333901 
L 209.394785 248.323324 
L 210.645048 249.627751 
L 211.89531 250.729847 
L 213.145573 252.011303 
L 214.395835 253.310832 
L 215.646098 254.60846 
L 216.896361 255.788047 
L 218.146623 257.154317 
L 219.396886 258.308621 
L 220.647148 259.349869 
L 221.897411 260.991212 
L 223.147674 261.704727 
L 224.397936 263.008398 
L 225.648199 264.337467 
L 226.898461 265.507595 
L 228.148724 266.783791 
L 229.398986 268.028034 
L 230.649249 269.236862 
L 231.899512 270.402115 
L 233.149774 271.679038 
L 234.400037 273.078785 
L 235.650299 274.234675 
L 236.900562 275.462995 
L 238.150825 276.771199 
L 239.401087 277.910372 
L 240.65135 279.269013 
L 241.901612 280.701615 
L 243.151875 281.777488 
L 244.402138 283.123013 
L 245.6524 284.205259 
L 246.902663 285.625439 
L 248.152925 286.826527 
L 249.403188 287.790322 
L 250.65345 289.226714 
L 251.903713 290.698478 
L 253.153976 291.733651 
L 254.404238 293.292463 
L 255.654501 294.251527 
L 256.904763 295.66899 
L 258.155026 296.770771 
L 259.405289 298.091328 
L 260.655551 299.563873 
L 261.905814 300.853884 
L 263.156076 301.946548 
L 264.406339 303.387154 
L 265.656602 304.593618 
L 266.906864 305.940214 
L 268.157127 307.267247 
L 269.407389 308.31975 
L 270.657652 309.85408 
L 271.907914 311.039156 
L 273.158177 312.308595 
L 274.40844 313.511105 
L 275.658702 314.715541 
L 276.908965 316.086483 
L 278.159227 317.47859 
L 279.40949 318.535034 
L 280.659753 319.903312 
L 281.910015 321.255379 
L 283.160278 322.630781 
L 284.41054 323.800628 
L 285.660803 325.087187 
L 286.911065 326.345373 
L 288.161328 327.761205 
L 289.411591 329.066804 
L 290.661853 330.082819 
L 291.912116 331.504865 
L 293.162378 332.655473 
L 294.412641 334.18272 
L 295.662904 335.243229 
L 296.913166 336.808467 
L 298.163429 337.892369 
L 299.413691 339.320004 
L 300.663954 340.533234 
L 301.914217 341.716042 
L 303.164479 343.030207 
L 304.414742 344.466436 
L 305.665004 345.814497 
L 306.915267 347.051672 
L 308.165529 348.298382 
L 309.415792 349.671457 
L 310.666055 350.951652 
L 311.916317 352.444243 
L 313.16658 353.518175 
L 314.416842 354.926334 
L 315.667105 356.280525 
L 316.917368 357.52769 
L 316.917368 352.542028 
L 316.917368 352.542028 
L 315.667105 351.209462 
L 314.416842 349.919912 
L 313.16658 348.557305 
L 311.916317 347.470451 
L 310.666055 346.019363 
L 309.415792 344.818904 
L 308.165529 343.326995 
L 306.915267 342.070239 
L 305.665004 340.885497 
L 304.414742 339.552743 
L 303.164479 338.23542 
L 301.914217 336.837793 
L 300.663954 335.528383 
L 299.413691 334.467529 
L 298.163429 332.806568 
L 296.913166 331.824174 
L 295.662904 330.333567 
L 294.412641 329.228951 
L 293.162378 327.850029 
L 291.912116 326.618909 
L 290.661853 325.307291 
L 289.411591 324.160322 
L 288.161328 322.774539 
L 286.911065 321.32121 
L 285.660803 320.06746 
L 284.41054 318.809846 
L 283.160278 317.744363 
L 281.910015 316.271717 
L 280.659753 314.971913 
L 279.40949 313.549912 
L 278.159227 312.429591 
L 276.908965 311.04394 
L 275.658702 309.84143 
L 274.40844 308.55061 
L 273.158177 307.163493 
L 271.907914 305.780135 
L 270.657652 304.549202 
L 269.407389 303.381742 
L 268.157127 302.014072 
L 266.906864 300.700063 
L 265.656602 299.621239 
L 264.406339 298.132736 
L 263.156076 296.849796 
L 261.905814 295.705191 
L 260.655551 294.430486 
L 259.405289 293.100373 
L 258.155026 291.673902 
L 256.904763 290.532845 
L 255.654501 289.155283 
L 254.404238 287.916684 
L 253.153976 286.56831 
L 251.903713 285.317876 
L 250.65345 284.186501 
L 249.403188 282.885274 
L 248.152925 281.490863 
L 246.902663 280.469964 
L 245.6524 278.925847 
L 244.402138 277.624218 
L 243.151875 276.489807 
L 241.901612 275.344759 
L 240.65135 273.938444 
L 239.401087 272.822688 
L 238.150825 271.342971 
L 236.900562 270.114494 
L 235.650299 269.081919 
L 234.400037 267.778945 
L 233.149774 266.328575 
L 231.899512 265.046103 
L 230.649249 263.805051 
L 229.398986 262.805764 
L 228.148724 261.32028 
L 226.898461 260.332468 
L 225.648199 258.736372 
L 224.397936 257.732728 
L 223.147674 256.427076 
L 221.897411 255.149682 
L 220.647148 253.95216 
L 219.396886 252.624766 
L 218.146623 251.510761 
L 216.896361 250.356836 
L 215.646098 248.949754 
L 214.395835 247.646908 
L 213.145573 246.678534 
L 211.89531 245.100173 
L 210.645048 244.181902 
L 209.394785 242.793498 
L 208.144522 241.609143 
L 206.89426 240.418139 
L 205.643997 239.12766 
L 204.393735 238.17322 
L 203.143472 236.839713 
L 201.89321 235.473828 
L 200.642947 234.402081 
L 199.392684 233.013582 
L 198.142422 231.872133 
L 196.892159 230.710879 
L 195.641897 229.549052 
L 194.391634 228.271514 
L 193.141371 226.935632 
L 191.891109 225.821036 
L 190.640846 224.745054 
L 189.390584 223.352741 
L 188.140321 221.919718 
L 186.890059 220.865905 
L 185.639796 219.801298 
L 184.389533 218.409009 
L 183.139271 217.166214 
L 181.889008 216.1455 
L 180.638746 214.813534 
L 179.388483 213.872566 
L 178.13822 212.634273 
L 176.887958 211.316001 
L 175.637695 210.170103 
L 174.387433 208.897072 
L 173.13717 207.893389 
L 171.886907 206.630157 
L 170.636645 204.998476 
L 169.386382 204.319284 
L 168.13612 203.127911 
L 166.885857 201.678607 
L 165.635595 200.722185 
L 164.385332 199.287924 
L 163.135069 198.359804 
L 161.884807 197.026931 
L 160.634544 196.074067 
L 159.384282 194.721853 
L 158.134019 193.510862 
L 156.883756 192.302988 
L 155.633494 190.946108 
L 154.383231 189.723113 
L 153.132969 188.930611 
L 151.882706 187.702708 
L 150.632443 186.408344 
L 149.382181 185.109338 
L 148.131918 184.038969 
L 146.881656 182.921018 
L 145.631393 181.550754 
L 144.381131 180.356884 
L 143.130868 179.119477 
L 141.880605 177.983419 
L 140.630343 176.693229 
L 139.38008 175.521 
L 138.129818 174.431517 
L 136.879555 173.246651 
L 135.629292 171.83241 
L 134.37903 170.539795 
L 133.128767 169.530627 
L 131.878505 168.220641 
L 130.628242 167.070522 
L 129.37798 165.782545 
L 128.127717 164.452197 
L 126.877454 163.075892 
L 125.627192 161.851431 
L 124.376929 160.767601 
L 123.126667 159.029622 
L 121.876404 157.942806 
L 120.626141 156.442389 
L 119.375879 155.04662 
L 118.125616 153.866932 
L 116.875354 152.196566 
L 115.625091 150.75359 
L 114.374828 149.418475 
L 113.124566 147.822443 
L 111.874303 146.571771 
L 110.624041 144.84275 
L 109.373778 143.524648 
L 108.123516 142.005681 
L 106.873253 140.544186 
L 105.62299 138.903556 
L 104.372728 137.128524 
L 103.122465 135.750135 
L 101.872203 133.900472 
L 100.62194 132.194168 
L 99.371677 130.687534 
L 98.121415 128.667799 
L 96.871152 126.963725 
L 95.62089 125.555182 
L 94.370627 123.613485 
L 93.120364 121.83973 
L 91.870102 120.027488 
L 90.619839 118.79203 
L 89.369577 116.714846 
L 88.119314 115.060786 
L 86.869052 113.465282 
L 85.618789 112.340309 
L 84.368526 110.834365 
L 83.118264 109.885384 
L 81.868001 109.098281 
L 80.617739 108.918667 
L 79.367476 108.82045 
L 78.117213 109.264023 
L 76.866951 110.571625 
L 75.616688 112.690341 
L 74.366426 116.349451 
L 73.116163 121.994009 
L 71.865901 129.345613 
L 70.615638 138.036777 
L 69.365375 148.267695 
L 68.115113 159.603807 
z
" style="fill-opacity:0.2;stroke:#000000;stroke-opacity:0.2;"/>
   </g>
   <g id="PolyCollection_2">
    <path clip-path="url(#p1186d51cde)" d="M 68.115113 123.448902 
L 68.115113 129.581957 
L 69.365375 128.110051 
L 70.615638 126.763924 
L 71.865901 125.588523 
L 73.116163 124.346604 
L 74.366426 123.476417 
L 75.616688 122.964866 
L 76.866951 122.521676 
L 78.117213 122.346957 
L 79.367476 121.91467 
L 80.617739 122.026465 
L 81.868001 122.076539 
L 83.118264 122.353442 
L 84.368526 122.873486 
L 85.618789 123.34328 
L 86.869052 123.76172 
L 88.119314 124.490834 
L 89.369577 125.301217 
L 90.619839 126.084654 
L 91.870102 126.542379 
L 93.120364 127.42621 
L 94.370627 128.345415 
L 95.62089 129.277433 
L 96.871152 130.423368 
L 98.121415 131.076317 
L 99.371677 132.159778 
L 100.62194 133.356169 
L 101.872203 134.322131 
L 103.122465 135.592301 
L 104.372728 136.511772 
L 105.62299 137.930179 
L 106.873253 139.031223 
L 108.123516 140.107389 
L 109.373778 141.380146 
L 110.624041 142.800848 
L 111.874303 143.952342 
L 113.124566 145.152412 
L 114.374828 146.559176 
L 115.625091 147.853172 
L 116.875354 149.216065 
L 118.125616 150.353896 
L 119.375879 151.616779 
L 120.626141 153.136529 
L 121.876404 154.303641 
L 123.126667 155.60956 
L 124.376929 156.868847 
L 125.627192 158.137789 
L 126.877454 159.405873 
L 128.127717 160.823633 
L 129.37798 162.061919 
L 130.628242 163.453658 
L 131.878505 164.952221 
L 133.128767 166.104392 
L 134.37903 167.500076 
L 135.629292 168.777373 
L 136.879555 169.986677 
L 138.129818 171.299589 
L 139.38008 172.625646 
L 140.630343 174.010417 
L 141.880605 175.280758 
L 143.130868 176.640181 
L 144.381131 177.830803 
L 145.631393 179.201629 
L 146.881656 180.573497 
L 148.131918 181.823024 
L 149.382181 183.155215 
L 150.632443 184.432208 
L 151.882706 185.727402 
L 153.132969 187.027675 
L 154.383231 188.308635 
L 155.633494 189.712198 
L 156.883756 190.927549 
L 158.134019 192.091776 
L 159.384282 193.512802 
L 160.634544 194.597205 
L 161.884807 196.086146 
L 163.135069 197.122095 
L 164.385332 198.466086 
L 165.635595 199.641195 
L 166.885857 200.891502 
L 168.13612 202.018447 
L 169.386382 203.232871 
L 170.636645 204.450637 
L 171.886907 205.617622 
L 173.13717 206.978539 
L 174.387433 208.155781 
L 175.637695 209.088028 
L 176.887958 210.505834 
L 178.13822 211.558719 
L 179.388483 212.680639 
L 180.638746 213.780355 
L 181.889008 214.890607 
L 183.139271 216.117149 
L 184.389533 217.31301 
L 185.639796 218.30968 
L 186.890059 219.447838 
L 188.140321 220.355599 
L 189.390584 221.723581 
L 190.640846 222.760617 
L 191.891109 223.905365 
L 193.141371 224.910193 
L 194.391634 226.150314 
L 195.641897 227.26964 
L 196.892159 228.299729 
L 198.142422 229.360653 
L 199.392684 230.460877 
L 200.642947 231.637079 
L 201.89321 232.607329 
L 203.143472 233.76448 
L 204.393735 234.790439 
L 205.643997 235.82308 
L 206.89426 236.917677 
L 208.144522 238.065008 
L 209.394785 239.250499 
L 210.645048 240.220944 
L 211.89531 241.181621 
L 213.145573 242.249862 
L 214.395835 243.498614 
L 215.646098 244.323958 
L 216.896361 245.47768 
L 218.146623 246.510032 
L 219.396886 247.683559 
L 220.647148 248.686517 
L 221.897411 249.559866 
L 223.147674 250.789896 
L 224.397936 251.755122 
L 225.648199 252.879361 
L 226.898461 253.891656 
L 228.148724 254.919834 
L 229.398986 255.932151 
L 230.649249 257.134295 
L 231.899512 257.974577 
L 233.149774 259.054689 
L 234.400037 260.14786 
L 235.650299 261.209847 
L 236.900562 262.043728 
L 238.150825 263.143789 
L 239.401087 264.217954 
L 240.65135 265.301837 
L 241.901612 266.332221 
L 243.151875 267.194614 
L 244.402138 268.409102 
L 245.6524 269.436508 
L 246.902663 270.468759 
L 248.152925 271.549989 
L 249.403188 272.679155 
L 250.65345 273.54669 
L 251.903713 274.594822 
L 253.153976 275.672939 
L 254.404238 276.643915 
L 255.654501 277.680239 
L 256.904763 278.659679 
L 258.155026 279.65909 
L 259.405289 280.827793 
L 260.655551 281.785709 
L 261.905814 282.771894 
L 263.156076 283.97725 
L 264.406339 284.733672 
L 265.656602 285.893675 
L 266.906864 286.954266 
L 268.157127 288.058422 
L 269.407389 289.052384 
L 270.657652 290.084172 
L 271.907914 291.282977 
L 273.158177 292.188756 
L 274.40844 293.245104 
L 275.658702 294.22985 
L 276.908965 295.143065 
L 278.159227 296.354775 
L 279.40949 297.444457 
L 280.659753 298.578897 
L 281.910015 299.237167 
L 283.160278 300.466808 
L 284.41054 301.606884 
L 285.660803 302.714152 
L 286.911065 303.619476 
L 288.161328 304.676003 
L 289.411591 305.664571 
L 290.661853 306.917512 
L 291.912116 307.800706 
L 293.162378 308.866459 
L 294.412641 309.851212 
L 295.662904 310.971764 
L 296.913166 311.953706 
L 298.163429 313.238255 
L 299.413691 314.055062 
L 300.663954 315.139171 
L 301.914217 316.234778 
L 303.164479 317.165343 
L 304.414742 318.238156 
L 305.665004 319.396888 
L 306.915267 320.341445 
L 308.165529 321.396116 
L 309.415792 322.417548 
L 310.666055 323.469525 
L 311.916317 324.570613 
L 313.16658 325.638956 
L 314.416842 326.741554 
L 315.667105 327.7548 
L 316.917368 328.689586 
L 316.917368 324.75594 
L 316.917368 324.75594 
L 315.667105 323.705122 
L 314.416842 322.655509 
L 313.16658 321.594326 
L 311.916317 320.610118 
L 310.666055 319.667286 
L 309.415792 318.443367 
L 308.165529 317.303831 
L 306.915267 316.266736 
L 305.665004 315.392169 
L 304.414742 314.208101 
L 303.164479 313.206784 
L 301.914217 312.234494 
L 300.663954 311.082183 
L 299.413691 310.082702 
L 298.163429 309.265616 
L 296.913166 308.09891 
L 295.662904 306.835772 
L 294.412641 305.999471 
L 293.162378 305.057016 
L 291.912116 303.832732 
L 290.661853 302.90851 
L 289.411591 301.881296 
L 288.161328 300.784263 
L 286.911065 299.968765 
L 285.660803 298.773379 
L 284.41054 297.654209 
L 283.160278 296.690388 
L 281.910015 295.635862 
L 280.659753 294.560846 
L 279.40949 293.551982 
L 278.159227 292.585484 
L 276.908965 291.486498 
L 275.658702 290.563656 
L 274.40844 289.251193 
L 273.158177 288.402276 
L 271.907914 287.397178 
L 270.657652 286.258303 
L 269.407389 285.263766 
L 268.157127 284.317299 
L 266.906864 283.272724 
L 265.656602 282.118103 
L 264.406339 281.173939 
L 263.156076 279.964224 
L 261.905814 278.947941 
L 260.655551 278.071696 
L 259.405289 276.902939 
L 258.155026 276.140902 
L 256.904763 275.146505 
L 255.654501 273.896086 
L 254.404238 272.813941 
L 253.153976 271.868098 
L 251.903713 270.767808 
L 250.65345 269.670548 
L 249.403188 268.874003 
L 248.152925 267.676409 
L 246.902663 266.687077 
L 245.6524 265.637077 
L 244.402138 264.72381 
L 243.151875 263.734443 
L 241.901612 262.731527 
L 240.65135 261.479929 
L 239.401087 260.428392 
L 238.150825 259.586316 
L 236.900562 258.525097 
L 235.650299 257.399544 
L 234.400037 256.235938 
L 233.149774 255.370817 
L 231.899512 254.384112 
L 230.649249 253.323655 
L 229.398986 252.176022 
L 228.148724 251.278251 
L 226.898461 250.149232 
L 225.648199 249.109853 
L 224.397936 248.002163 
L 223.147674 247.007501 
L 221.897411 245.943384 
L 220.647148 244.901275 
L 219.396886 243.967293 
L 218.146623 242.846112 
L 216.896361 241.611482 
L 215.646098 240.710202 
L 214.395835 239.563047 
L 213.145573 238.625075 
L 211.89531 237.680694 
L 210.645048 236.460633 
L 209.394785 235.456591 
L 208.144522 234.498241 
L 206.89426 233.438489 
L 205.643997 232.207878 
L 204.393735 231.197011 
L 203.143472 229.945329 
L 201.89321 228.918021 
L 200.642947 227.933434 
L 199.392684 226.821478 
L 198.142422 225.82361 
L 196.892159 224.728331 
L 195.641897 223.49921 
L 194.391634 222.51838 
L 193.141371 221.345943 
L 191.891109 220.274966 
L 190.640846 219.226781 
L 189.390584 218.077136 
L 188.140321 216.805763 
L 186.890059 215.706605 
L 185.639796 214.657808 
L 184.389533 213.629171 
L 183.139271 212.349266 
L 181.889008 211.242033 
L 180.638746 210.091055 
L 179.388483 209.009839 
L 178.13822 207.916535 
L 176.887958 206.655757 
L 175.637695 205.383581 
L 174.387433 204.470381 
L 173.13717 203.045996 
L 171.886907 202.077267 
L 170.636645 200.648941 
L 169.386382 199.486845 
L 168.13612 198.315286 
L 166.885857 197.104293 
L 165.635595 195.884323 
L 164.385332 194.680237 
L 163.135069 193.32113 
L 161.884807 192.190705 
L 160.634544 190.775765 
L 159.384282 189.494079 
L 158.134019 188.230825 
L 156.883756 186.935567 
L 155.633494 185.645983 
L 154.383231 184.418379 
L 153.132969 183.097897 
L 151.882706 181.607375 
L 150.632443 180.503809 
L 149.382181 179.23658 
L 148.131918 177.823514 
L 146.881656 176.453135 
L 145.631393 175.233388 
L 144.381131 173.918756 
L 143.130868 172.538675 
L 141.880605 171.201427 
L 140.630343 169.909714 
L 139.38008 168.561661 
L 138.129818 167.299939 
L 136.879555 166.060682 
L 135.629292 164.580002 
L 134.37903 163.224691 
L 133.128767 161.993201 
L 131.878505 160.577551 
L 130.628242 159.174945 
L 129.37798 157.966109 
L 128.127717 156.774194 
L 126.877454 155.312392 
L 125.627192 153.994519 
L 124.376929 152.610991 
L 123.126667 151.245499 
L 121.876404 149.95991 
L 120.626141 148.523231 
L 119.375879 147.206208 
L 118.125616 145.780506 
L 116.875354 144.625952 
L 115.625091 143.340598 
L 114.374828 141.95969 
L 113.124566 140.598417 
L 111.874303 139.35121 
L 110.624041 138.156409 
L 109.373778 136.336441 
L 108.123516 135.368833 
L 106.873253 134.274964 
L 105.62299 132.896115 
L 104.372728 131.697411 
L 103.122465 130.54227 
L 101.872203 129.430048 
L 100.62194 128.152932 
L 99.371677 126.986776 
L 98.121415 126.031858 
L 96.871152 124.912402 
L 95.62089 123.894628 
L 94.370627 122.966331 
L 93.120364 122.1061 
L 91.870102 121.209408 
L 90.619839 120.348072 
L 89.369577 119.60097 
L 88.119314 118.817718 
L 86.869052 118.346671 
L 85.618789 117.386207 
L 84.368526 117.275132 
L 83.118264 116.948187 
L 81.868001 116.397034 
L 80.617739 116.065658 
L 79.367476 116.128962 
L 78.117213 116.221862 
L 76.866951 116.455915 
L 75.616688 116.84483 
L 74.366426 117.42795 
L 73.116163 118.386957 
L 71.865901 119.347903 
L 70.615638 120.42428 
L 69.365375 121.81821 
L 68.115113 123.448902 
z
" style="fill-opacity:0.2;stroke:#000000;stroke-opacity:0.2;"/>
   </g>
   <g id="PolyCollection_3">
    <defs>
     <path d="M 68.115113 -83.878134 
L 68.115113 -77.920108 
L 69.365375 -78.992496 
L 70.615638 -80.584451 
L 71.865901 -81.642463 
L 73.116163 -83.019977 
L 74.366426 -84.325944 
L 75.616688 -85.646605 
L 76.866951 -86.40238 
L 78.117213 -87.833541 
L 79.367476 -88.918253 
L 80.617739 -90.091838 
L 81.868001 -91.149637 
L 83.118264 -92.243937 
L 84.368526 -93.173598 
L 85.618789 -94.377527 
L 86.869052 -95.190845 
L 88.119314 -96.069344 
L 89.369577 -97.184143 
L 90.619839 -98.121583 
L 91.870102 -99.251978 
L 93.120364 -100.071005 
L 94.370627 -101.093201 
L 95.62089 -101.816907 
L 96.871152 -102.932797 
L 98.121415 -103.762828 
L 99.371677 -104.757206 
L 100.62194 -105.939567 
L 101.872203 -106.348757 
L 103.122465 -107.239554 
L 104.372728 -107.987125 
L 105.62299 -109.350969 
L 106.873253 -109.972689 
L 108.123516 -110.934358 
L 109.373778 -111.779125 
L 110.624041 -112.598799 
L 111.874303 -113.353441 
L 113.124566 -114.26066 
L 114.374828 -114.975664 
L 115.625091 -115.970373 
L 116.875354 -116.739968 
L 118.125616 -117.426089 
L 119.375879 -118.119421 
L 120.626141 -119.174768 
L 121.876404 -119.97342 
L 123.126667 -120.774476 
L 124.376929 -121.244264 
L 125.627192 -122.013627 
L 126.877454 -123.038909 
L 128.127717 -123.597719 
L 129.37798 -124.566074 
L 130.628242 -125.346029 
L 131.878505 -125.992028 
L 133.128767 -126.432095 
L 134.37903 -127.587058 
L 135.629292 -128.247063 
L 136.879555 -129.054255 
L 138.129818 -129.730699 
L 139.38008 -130.3596 
L 140.630343 -131.369513 
L 141.880605 -132.061106 
L 143.130868 -132.740676 
L 144.381131 -133.60174 
L 145.631393 -134.203956 
L 146.881656 -135.001078 
L 148.131918 -135.505093 
L 149.382181 -136.357632 
L 150.632443 -137.068335 
L 151.882706 -137.784148 
L 153.132969 -138.442941 
L 154.383231 -139.593057 
L 155.633494 -139.752957 
L 156.883756 -140.69324 
L 158.134019 -141.376566 
L 159.384282 -141.851122 
L 160.634544 -142.67379 
L 161.884807 -143.073797 
L 163.135069 -143.879215 
L 164.385332 -144.792904 
L 165.635595 -145.277447 
L 166.885857 -146.35393 
L 168.13612 -146.572478 
L 169.386382 -147.284046 
L 170.636645 -148.077958 
L 171.886907 -148.673483 
L 173.13717 -149.159126 
L 174.387433 -149.708808 
L 175.637695 -150.562863 
L 176.887958 -150.887404 
L 178.13822 -151.604105 
L 179.388483 -152.260943 
L 180.638746 -152.771009 
L 181.889008 -153.258424 
L 183.139271 -153.788321 
L 184.389533 -154.301555 
L 185.639796 -154.831831 
L 186.890059 -155.489331 
L 188.140321 -155.871879 
L 189.390584 -156.223249 
L 190.640846 -156.66391 
L 191.891109 -157.040803 
L 193.141371 -157.642804 
L 194.391634 -158.48182 
L 195.641897 -158.85389 
L 196.892159 -159.284832 
L 198.142422 -159.54995 
L 199.392684 -160.020064 
L 200.642947 -160.252048 
L 201.89321 -161.079083 
L 203.143472 -161.302978 
L 204.393735 -161.53486 
L 205.643997 -161.979038 
L 206.89426 -162.621492 
L 208.144522 -162.864346 
L 209.394785 -163.327442 
L 210.645048 -163.628913 
L 211.89531 -164.049507 
L 213.145573 -164.521201 
L 214.395835 -164.982496 
L 215.646098 -165.139319 
L 216.896361 -165.508774 
L 218.146623 -165.822632 
L 219.396886 -166.520862 
L 220.647148 -166.59292 
L 221.897411 -166.891331 
L 223.147674 -167.354071 
L 224.397936 -167.52151 
L 225.648199 -168.018699 
L 226.898461 -168.312564 
L 228.148724 -168.798467 
L 229.398986 -168.815922 
L 230.649249 -168.845432 
L 231.899512 -169.183474 
L 233.149774 -169.810596 
L 234.400037 -170.02753 
L 235.650299 -170.439762 
L 236.900562 -170.659471 
L 238.150825 -171.020282 
L 239.401087 -171.225901 
L 240.65135 -171.510096 
L 241.901612 -171.813403 
L 243.151875 -172.149104 
L 244.402138 -172.587426 
L 245.6524 -172.469402 
L 246.902663 -172.808795 
L 248.152925 -173.005847 
L 249.403188 -173.43072 
L 250.65345 -173.525839 
L 251.903713 -174.056311 
L 253.153976 -174.165271 
L 254.404238 -174.354043 
L 255.654501 -174.379899 
L 256.904763 -174.879073 
L 258.155026 -175.283152 
L 259.405289 -175.367892 
L 260.655551 -175.713636 
L 261.905814 -175.94137 
L 263.156076 -176.15473 
L 264.406339 -176.323761 
L 265.656602 -176.734174 
L 266.906864 -176.503823 
L 268.157127 -177.07124 
L 269.407389 -177.184059 
L 270.657652 -177.392398 
L 271.907914 -177.709622 
L 273.158177 -177.701859 
L 274.40844 -178.117406 
L 275.658702 -178.456637 
L 276.908965 -178.734289 
L 278.159227 -178.816524 
L 279.40949 -178.684928 
L 280.659753 -179.06341 
L 281.910015 -179.119417 
L 283.160278 -179.675778 
L 284.41054 -179.732001 
L 285.660803 -180.049163 
L 286.911065 -180.164547 
L 288.161328 -180.159794 
L 289.411591 -180.398839 
L 290.661853 -180.429438 
L 291.912116 -180.680466 
L 293.162378 -180.844993 
L 294.412641 -181.174818 
L 295.662904 -181.416849 
L 296.913166 -181.494553 
L 298.163429 -181.668413 
L 299.413691 -181.603517 
L 300.663954 -182.206763 
L 301.914217 -182.16099 
L 303.164479 -182.178412 
L 304.414742 -182.399091 
L 305.665004 -182.529483 
L 306.915267 -182.891719 
L 308.165529 -183.122211 
L 309.415792 -183.019353 
L 310.666055 -183.39363 
L 311.916317 -183.231 
L 313.16658 -183.659035 
L 314.416842 -183.578828 
L 315.667105 -184.126599 
L 316.917368 -183.952174 
L 316.917368 -188.194716 
L 316.917368 -188.194716 
L 315.667105 -188.235534 
L 314.416842 -188.0892 
L 313.16658 -187.950713 
L 311.916317 -187.770008 
L 310.666055 -187.635759 
L 309.415792 -187.445533 
L 308.165529 -187.311184 
L 306.915267 -187.334898 
L 305.665004 -187.015652 
L 304.414742 -186.864213 
L 303.164479 -186.871698 
L 301.914217 -186.633019 
L 300.663954 -186.59717 
L 299.413691 -186.268809 
L 298.163429 -186.310721 
L 296.913166 -186.0991 
L 295.662904 -185.711915 
L 294.412641 -185.91164 
L 293.162378 -185.634739 
L 291.912116 -185.375527 
L 290.661853 -185.429816 
L 289.411591 -185.120885 
L 288.161328 -184.986426 
L 286.911065 -184.742424 
L 285.660803 -184.684911 
L 284.41054 -184.407818 
L 283.160278 -184.322276 
L 281.910015 -184.181112 
L 280.659753 -183.919816 
L 279.40949 -183.719081 
L 278.159227 -183.63869 
L 276.908965 -183.448167 
L 275.658702 -183.157272 
L 274.40844 -183.234737 
L 273.158177 -182.762753 
L 271.907914 -182.655746 
L 270.657652 -182.31859 
L 269.407389 -182.136668 
L 268.157127 -182.15873 
L 266.906864 -181.695283 
L 265.656602 -181.628684 
L 264.406339 -181.255205 
L 263.156076 -181.060069 
L 261.905814 -180.902799 
L 260.655551 -180.733131 
L 259.405289 -180.597436 
L 258.155026 -180.313953 
L 256.904763 -180.176418 
L 255.654501 -179.936872 
L 254.404238 -179.641102 
L 253.153976 -179.28777 
L 251.903713 -178.949466 
L 250.65345 -179.0151 
L 249.403188 -178.724918 
L 248.152925 -178.513527 
L 246.902663 -178.169633 
L 245.6524 -177.891192 
L 244.402138 -177.37345 
L 243.151875 -177.672248 
L 241.901612 -177.167056 
L 240.65135 -176.81188 
L 239.401087 -176.587312 
L 238.150825 -176.352218 
L 236.900562 -176.03777 
L 235.650299 -175.655624 
L 234.400037 -175.436656 
L 233.149774 -175.185191 
L 231.899512 -174.896901 
L 230.649249 -174.656931 
L 229.398986 -174.213301 
L 228.148724 -174.14178 
L 226.898461 -173.708219 
L 225.648199 -173.390311 
L 224.397936 -173.201692 
L 223.147674 -172.640205 
L 221.897411 -172.380244 
L 220.647148 -172.109727 
L 219.396886 -171.833475 
L 218.146623 -171.473162 
L 216.896361 -171.196014 
L 215.646098 -170.767439 
L 214.395835 -170.422573 
L 213.145573 -170.144172 
L 211.89531 -169.754879 
L 210.645048 -169.459875 
L 209.394785 -169.048517 
L 208.144522 -168.660974 
L 206.89426 -168.301054 
L 205.643997 -167.871219 
L 204.393735 -167.489697 
L 203.143472 -167.121335 
L 201.89321 -166.710978 
L 200.642947 -166.057154 
L 199.392684 -165.882971 
L 198.142422 -165.381921 
L 196.892159 -164.870732 
L 195.641897 -164.398444 
L 194.391634 -163.879289 
L 193.141371 -163.649215 
L 191.891109 -162.991972 
L 190.640846 -162.435559 
L 189.390584 -162.063582 
L 188.140321 -161.578996 
L 186.890059 -161.121879 
L 185.639796 -160.34938 
L 184.389533 -160.022651 
L 183.139271 -159.482284 
L 181.889008 -158.80566 
L 180.638746 -158.597393 
L 179.388483 -157.987281 
L 178.13822 -157.177255 
L 176.887958 -156.891752 
L 175.637695 -156.147379 
L 174.387433 -155.630882 
L 173.13717 -154.800124 
L 171.886907 -154.325167 
L 170.636645 -153.78941 
L 169.386382 -152.921002 
L 168.13612 -152.456867 
L 166.885857 -151.755522 
L 165.635595 -150.977202 
L 164.385332 -150.470536 
L 163.135069 -149.788454 
L 161.884807 -148.99191 
L 160.634544 -148.500985 
L 159.384282 -147.733368 
L 158.134019 -147.161352 
L 156.883756 -146.810404 
L 155.633494 -145.539617 
L 154.383231 -145.108835 
L 153.132969 -144.20334 
L 151.882706 -143.363429 
L 150.632443 -142.797531 
L 149.382181 -142.414042 
L 148.131918 -141.410393 
L 146.881656 -140.705881 
L 145.631393 -140.237212 
L 144.381131 -139.344355 
L 143.130868 -138.527157 
L 141.880605 -137.65321 
L 140.630343 -137.021198 
L 139.38008 -136.069498 
L 138.129818 -135.417601 
L 136.879555 -135.004505 
L 135.629292 -133.729135 
L 134.37903 -133.409661 
L 133.128767 -132.4587 
L 131.878505 -131.63135 
L 130.628242 -131.0812 
L 129.37798 -130.268685 
L 128.127717 -129.550512 
L 126.877454 -128.614441 
L 125.627192 -127.963048 
L 124.376929 -126.835658 
L 123.126667 -126.329213 
L 121.876404 -125.384054 
L 120.626141 -124.607329 
L 119.375879 -124.212639 
L 118.125616 -123.043726 
L 116.875354 -122.498786 
L 115.625091 -121.698811 
L 114.374828 -120.596462 
L 113.124566 -119.987459 
L 111.874303 -118.916323 
L 110.624041 -118.285264 
L 109.373778 -117.344501 
L 108.123516 -116.703943 
L 106.873253 -115.775069 
L 105.62299 -115.03266 
L 104.372728 -113.904295 
L 103.122465 -113.046492 
L 101.872203 -112.523806 
L 100.62194 -111.647406 
L 99.371677 -110.529468 
L 98.121415 -109.856824 
L 96.871152 -108.737488 
L 95.62089 -108.134693 
L 94.370627 -107.153577 
L 93.120364 -105.952189 
L 91.870102 -104.781587 
L 90.619839 -103.790096 
L 89.369577 -103.091488 
L 88.119314 -102.088028 
L 86.869052 -100.996995 
L 85.618789 -100.024222 
L 84.368526 -99.003526 
L 83.118264 -98.026787 
L 81.868001 -97.210093 
L 80.617739 -95.820223 
L 79.367476 -94.70142 
L 78.117213 -93.660528 
L 76.866951 -92.461542 
L 75.616688 -91.361168 
L 74.366426 -90.313297 
L 73.116163 -89.054326 
L 71.865901 -87.849834 
L 70.615638 -86.548837 
L 69.365375 -85.282101 
L 68.115113 -83.878134 
z
" id="m59f37217ae" style="stroke:#000000;stroke-opacity:0.2;"/>
    </defs>
    <g clip-path="url(#p1186d51cde)">
     <use style="fill-opacity:0.2;stroke:#000000;stroke-opacity:0.2;" x="0" xlink:href="#m59f37217ae" y="212.598425"/>
    </g>
   </g>
   <g id="matplotlib.axis_1">
    <g id="xtick_1">
     <g id="line2d_1">
      <path clip-path="url(#p1186d51cde)" d="M 68.115113 185.798425 
L 68.115113 14.3 
" style="fill:none;stroke:#b0b0b0;stroke-linecap:square;stroke-width:0.8;"/>
     </g>
     <g id="line2d_2">
      <defs>
       <path d="M 0 0 
L 0 3.5 
" id="mbd512f8cdc" style="stroke:#000000;stroke-width:0.8;"/>
      </defs>
      <g>
       <use style="stroke:#000000;stroke-width:0.8;" x="68.115113" xlink:href="#mbd512f8cdc" y="185.798425"/>
      </g>
     </g>
     <g id="text_1">
      <!-- 0 -->
      <g transform="translate(65.334644 199.956238)scale(0.1 -0.1)">
       <defs>
        <path d="M 4.15625 35.296875 
Q 4.15625 48 6.765625 55.734375 
Q 9.375 63.484375 14.515625 67.671875 
Q 19.671875 71.875 27.484375 71.875 
Q 33.25 71.875 37.59375 69.546875 
Q 41.9375 67.234375 44.765625 62.859375 
Q 47.609375 58.5 49.21875 52.21875 
Q 50.828125 45.953125 50.828125 35.296875 
Q 50.828125 22.703125 48.234375 14.96875 
Q 45.65625 7.234375 40.5 3 
Q 35.359375 -1.21875 27.484375 -1.21875 
Q 17.140625 -1.21875 11.234375 6.203125 
Q 4.15625 15.140625 4.15625 35.296875 
z
M 13.1875 35.296875 
Q 13.1875 17.671875 17.3125 11.828125 
Q 21.4375 6 27.484375 6 
Q 33.546875 6 37.671875 11.859375 
Q 41.796875 17.71875 41.796875 35.296875 
Q 41.796875 52.984375 37.671875 58.78125 
Q 33.546875 64.59375 27.390625 64.59375 
Q 21.34375 64.59375 17.71875 59.46875 
Q 13.1875 52.9375 13.1875 35.296875 
z
" id="ArialMT-48"/>
       </defs>
       <use xlink:href="#ArialMT-48"/>
      </g>
     </g>
    </g>
    <g id="xtick_2">
     <g id="line2d_3">
      <path clip-path="url(#p1186d51cde)" d="M 130.315676 185.798425 
L 130.315676 14.3 
" style="fill:none;stroke:#b0b0b0;stroke-linecap:square;stroke-width:0.8;"/>
     </g>
     <g id="line2d_4">
      <g>
       <use style="stroke:#000000;stroke-width:0.8;" x="130.315676" xlink:href="#mbd512f8cdc" y="185.798425"/>
      </g>
     </g>
     <g id="text_2">
      <!-- 25 -->
      <g transform="translate(124.754739 199.956238)scale(0.1 -0.1)">
       <defs>
        <path d="M 50.34375 8.453125 
L 50.34375 0 
L 3.03125 0 
Q 2.9375 3.171875 4.046875 6.109375 
Q 5.859375 10.9375 9.828125 15.625 
Q 13.8125 20.3125 21.34375 26.46875 
Q 33.015625 36.03125 37.109375 41.625 
Q 41.21875 47.21875 41.21875 52.203125 
Q 41.21875 57.421875 37.46875 61 
Q 33.734375 64.59375 27.734375 64.59375 
Q 21.390625 64.59375 17.578125 60.78125 
Q 13.765625 56.984375 13.71875 50.25 
L 4.6875 51.171875 
Q 5.609375 61.28125 11.65625 66.578125 
Q 17.71875 71.875 27.9375 71.875 
Q 38.234375 71.875 44.234375 66.15625 
Q 50.25 60.453125 50.25 52 
Q 50.25 47.703125 48.484375 43.546875 
Q 46.734375 39.40625 42.65625 34.8125 
Q 38.578125 30.21875 29.109375 22.21875 
Q 21.1875 15.578125 18.9375 13.203125 
Q 16.703125 10.84375 15.234375 8.453125 
z
" id="ArialMT-50"/>
        <path d="M 4.15625 18.75 
L 13.375 19.53125 
Q 14.40625 12.796875 18.140625 9.390625 
Q 21.875 6 27.15625 6 
Q 33.5 6 37.890625 10.78125 
Q 42.28125 15.578125 42.28125 23.484375 
Q 42.28125 31 38.0625 35.34375 
Q 33.84375 39.703125 27 39.703125 
Q 22.75 39.703125 19.328125 37.765625 
Q 15.921875 35.84375 13.96875 32.765625 
L 5.71875 33.84375 
L 12.640625 70.609375 
L 48.25 70.609375 
L 48.25 62.203125 
L 19.671875 62.203125 
L 15.828125 42.96875 
Q 22.265625 47.46875 29.34375 47.46875 
Q 38.71875 47.46875 45.15625 40.96875 
Q 51.609375 34.46875 51.609375 24.265625 
Q 51.609375 14.546875 45.953125 7.46875 
Q 39.0625 -1.21875 27.15625 -1.21875 
Q 17.390625 -1.21875 11.203125 4.25 
Q 5.03125 9.71875 4.15625 18.75 
z
" id="ArialMT-53"/>
       </defs>
       <use xlink:href="#ArialMT-50"/>
       <use x="55.615234" xlink:href="#ArialMT-53"/>
      </g>
     </g>
    </g>
    <g id="xtick_3">
     <g id="line2d_5">
      <path clip-path="url(#p1186d51cde)" d="M 192.51624 185.798425 
L 192.51624 14.3 
" style="fill:none;stroke:#b0b0b0;stroke-linecap:square;stroke-width:0.8;"/>
     </g>
     <g id="line2d_6">
      <g>
       <use style="stroke:#000000;stroke-width:0.8;" x="192.51624" xlink:href="#mbd512f8cdc" y="185.798425"/>
      </g>
     </g>
     <g id="text_3">
      <!-- 50 -->
      <g transform="translate(186.955303 199.956238)scale(0.1 -0.1)">
       <use xlink:href="#ArialMT-53"/>
       <use x="55.615234" xlink:href="#ArialMT-48"/>
      </g>
     </g>
    </g>
    <g id="xtick_4">
     <g id="line2d_7">
      <path clip-path="url(#p1186d51cde)" d="M 254.716804 185.798425 
L 254.716804 14.3 
" style="fill:none;stroke:#b0b0b0;stroke-linecap:square;stroke-width:0.8;"/>
     </g>
     <g id="line2d_8">
      <g>
       <use style="stroke:#000000;stroke-width:0.8;" x="254.716804" xlink:href="#mbd512f8cdc" y="185.798425"/>
      </g>
     </g>
     <g id="text_4">
      <!-- 75 -->
      <g transform="translate(249.155866 199.956238)scale(0.1 -0.1)">
       <defs>
        <path d="M 4.734375 62.203125 
L 4.734375 70.65625 
L 51.078125 70.65625 
L 51.078125 63.8125 
Q 44.234375 56.546875 37.515625 44.484375 
Q 30.8125 32.421875 27.15625 19.671875 
Q 24.515625 10.6875 23.78125 0 
L 14.75 0 
Q 14.890625 8.453125 18.0625 20.40625 
Q 21.234375 32.375 27.171875 43.484375 
Q 33.109375 54.59375 39.796875 62.203125 
z
" id="ArialMT-55"/>
       </defs>
       <use xlink:href="#ArialMT-55"/>
       <use x="55.615234" xlink:href="#ArialMT-53"/>
      </g>
     </g>
    </g>
    <g id="xtick_5">
     <g id="line2d_9">
      <path clip-path="url(#p1186d51cde)" d="M 316.917368 185.798425 
L 316.917368 14.3 
" style="fill:none;stroke:#b0b0b0;stroke-linecap:square;stroke-width:0.8;"/>
     </g>
     <g id="line2d_10">
      <g>
       <use style="stroke:#000000;stroke-width:0.8;" x="316.917368" xlink:href="#mbd512f8cdc" y="185.798425"/>
      </g>
     </g>
     <g id="text_5">
      <!-- 100 -->
      <g transform="translate(308.575961 199.956238)scale(0.1 -0.1)">
       <defs>
        <path d="M 37.25 0 
L 28.46875 0 
L 28.46875 56 
Q 25.296875 52.984375 20.140625 49.953125 
Q 14.984375 46.921875 10.890625 45.40625 
L 10.890625 53.90625 
Q 18.265625 57.375 23.78125 62.296875 
Q 29.296875 67.234375 31.59375 71.875 
L 37.25 71.875 
z
" id="ArialMT-49"/>
       </defs>
       <use xlink:href="#ArialMT-49"/>
       <use x="55.615234" xlink:href="#ArialMT-48"/>
       <use x="111.230469" xlink:href="#ArialMT-48"/>
      </g>
     </g>
    </g>
   </g>
   <g id="matplotlib.axis_2">
    <g id="ytick_1">
     <g id="line2d_11">
      <path clip-path="url(#p1186d51cde)" d="M 55.675 185.798425 
L 329.35748 185.798425 
" style="fill:none;stroke:#b0b0b0;stroke-linecap:square;stroke-width:0.8;"/>
     </g>
     <g id="line2d_12">
      <defs>
       <path d="M 0 0 
L -3.5 0 
" id="m0632b82f2d" style="stroke:#000000;stroke-width:0.8;"/>
      </defs>
      <g>
       <use style="stroke:#000000;stroke-width:0.8;" x="55.675" xlink:href="#m0632b82f2d" y="185.798425"/>
      </g>
     </g>
     <g id="text_6">
      <!-- −2.0 -->
      <g transform="translate(28.934375 189.377331)scale(0.1 -0.1)">
       <defs>
        <path d="M 52.828125 31.203125 
L 5.5625 31.203125 
L 5.5625 39.40625 
L 52.828125 39.40625 
z
" id="ArialMT-8722"/>
        <path d="M 9.078125 0 
L 9.078125 10.015625 
L 19.09375 10.015625 
L 19.09375 0 
z
" id="ArialMT-46"/>
       </defs>
       <use xlink:href="#ArialMT-8722"/>
       <use x="58.398438" xlink:href="#ArialMT-50"/>
       <use x="114.013672" xlink:href="#ArialMT-46"/>
       <use x="141.796875" xlink:href="#ArialMT-48"/>
      </g>
     </g>
    </g>
    <g id="ytick_2">
     <g id="line2d_13">
      <path clip-path="url(#p1186d51cde)" d="M 55.675 142.923819 
L 329.35748 142.923819 
" style="fill:none;stroke:#b0b0b0;stroke-linecap:square;stroke-width:0.8;"/>
     </g>
     <g id="line2d_14">
      <g>
       <use style="stroke:#000000;stroke-width:0.8;" x="55.675" xlink:href="#m0632b82f2d" y="142.923819"/>
      </g>
     </g>
     <g id="text_7">
      <!-- −1.5 -->
      <g transform="translate(28.934375 146.502725)scale(0.1 -0.1)">
       <use xlink:href="#ArialMT-8722"/>
       <use x="58.398438" xlink:href="#ArialMT-49"/>
       <use x="114.013672" xlink:href="#ArialMT-46"/>
       <use x="141.796875" xlink:href="#ArialMT-53"/>
      </g>
     </g>
    </g>
    <g id="ytick_3">
     <g id="line2d_15">
      <path clip-path="url(#p1186d51cde)" d="M 55.675 100.049213 
L 329.35748 100.049213 
" style="fill:none;stroke:#b0b0b0;stroke-linecap:square;stroke-width:0.8;"/>
     </g>
     <g id="line2d_16">
      <g>
       <use style="stroke:#000000;stroke-width:0.8;" x="55.675" xlink:href="#m0632b82f2d" y="100.049213"/>
      </g>
     </g>
     <g id="text_8">
      <!-- −1.0 -->
      <g transform="translate(28.934375 103.628119)scale(0.1 -0.1)">
       <use xlink:href="#ArialMT-8722"/>
       <use x="58.398438" xlink:href="#ArialMT-49"/>
       <use x="114.013672" xlink:href="#ArialMT-46"/>
       <use x="141.796875" xlink:href="#ArialMT-48"/>
      </g>
     </g>
    </g>
    <g id="ytick_4">
     <g id="line2d_17">
      <path clip-path="url(#p1186d51cde)" d="M 55.675 57.174606 
L 329.35748 57.174606 
" style="fill:none;stroke:#b0b0b0;stroke-linecap:square;stroke-width:0.8;"/>
     </g>
     <g id="line2d_18">
      <g>
       <use style="stroke:#000000;stroke-width:0.8;" x="55.675" xlink:href="#m0632b82f2d" y="57.174606"/>
      </g>
     </g>
     <g id="text_9">
      <!-- −0.5 -->
      <g transform="translate(28.934375 60.753513)scale(0.1 -0.1)">
       <use xlink:href="#ArialMT-8722"/>
       <use x="58.398438" xlink:href="#ArialMT-48"/>
       <use x="114.013672" xlink:href="#ArialMT-46"/>
       <use x="141.796875" xlink:href="#ArialMT-53"/>
      </g>
     </g>
    </g>
    <g id="ytick_5">
     <g id="line2d_19">
      <path clip-path="url(#p1186d51cde)" d="M 55.675 14.3 
L 329.35748 14.3 
" style="fill:none;stroke:#b0b0b0;stroke-linecap:square;stroke-width:0.8;"/>
     </g>
     <g id="line2d_20">
      <g>
       <use style="stroke:#000000;stroke-width:0.8;" x="55.675" xlink:href="#m0632b82f2d" y="14.3"/>
      </g>
     </g>
     <g id="text_10">
      <!-- 0.0 -->
      <g transform="translate(34.775 17.878906)scale(0.1 -0.1)">
       <use xlink:href="#ArialMT-48"/>
       <use x="55.615234" xlink:href="#ArialMT-46"/>
       <use x="83.398438" xlink:href="#ArialMT-48"/>
      </g>
     </g>
    </g>
    <g id="text_11">
     <!-- $Log_{10}$ Probability -->
     <g transform="translate(22.734375 138.399213)rotate(-90)scale(0.1 -0.1)">
      <defs>
       <path d="M 16.796875 72.90625 
L 26.703125 72.90625 
L 14.203125 8.203125 
L 49.703125 8.203125 
L 48.09375 0 
L 2.6875 0 
z
" id="DejaVuSans-Oblique-76"/>
       <path d="M 25.390625 -1.421875 
Q 15.765625 -1.421875 10.171875 4.515625 
Q 4.59375 10.453125 4.59375 20.703125 
Q 4.59375 26.65625 6.515625 32.828125 
Q 8.453125 39.015625 11.53125 43.21875 
Q 16.359375 49.75 22.3125 52.875 
Q 28.265625 56 35.796875 56 
Q 45.125 56 50.859375 50.1875 
Q 56.59375 44.390625 56.59375 35.015625 
Q 56.59375 28.515625 54.6875 22.0625 
Q 52.78125 15.625 49.703125 11.375 
Q 44.921875 4.828125 38.96875 1.703125 
Q 33.015625 -1.421875 25.390625 -1.421875 
z
M 13.921875 21 
Q 13.921875 13.578125 17.015625 9.890625 
Q 20.125 6.203125 26.421875 6.203125 
Q 35.453125 6.203125 41.375 14.078125 
Q 47.3125 21.96875 47.3125 34.078125 
Q 47.3125 41.15625 44.140625 44.765625 
Q 40.96875 48.390625 34.8125 48.390625 
Q 29.734375 48.390625 25.78125 46.015625 
Q 21.828125 43.65625 18.703125 38.8125 
Q 16.40625 35.203125 15.15625 30.5625 
Q 13.921875 25.921875 13.921875 21 
z
" id="DejaVuSans-Oblique-111"/>
       <path d="M 59.625 54.6875 
L 50.296875 6.78125 
Q 47.609375 -7.125 40.015625 -13.953125 
Q 32.421875 -20.796875 19.578125 -20.796875 
Q 14.84375 -20.796875 10.78125 -20.09375 
Q 6.734375 -19.390625 3.21875 -17.921875 
L 4.890625 -9.1875 
Q 8.203125 -11.328125 11.90625 -12.34375 
Q 15.625 -13.375 19.828125 -13.375 
Q 28.375 -13.375 33.859375 -8.703125 
Q 39.359375 -4.046875 41.109375 4.6875 
L 41.890625 8.796875 
Q 38.140625 4.5 33.15625 2.25 
Q 28.171875 0 22.40625 0 
Q 14.109375 0 9.34375 5.484375 
Q 4.59375 10.984375 4.59375 20.609375 
Q 4.59375 28.171875 7.46875 35.421875 
Q 10.359375 42.671875 15.578125 48.296875 
Q 19.046875 52 23.65625 54 
Q 28.265625 56 33.296875 56 
Q 38.8125 56 42.90625 53.4375 
Q 47.015625 50.875 49.03125 46.1875 
L 50.59375 54.6875 
z
M 46.09375 34.625 
Q 46.09375 41.265625 42.96875 44.875 
Q 39.84375 48.484375 34.078125 48.484375 
Q 30.515625 48.484375 27.296875 47.0625 
Q 24.078125 45.65625 21.78125 43.109375 
Q 18.0625 38.921875 15.984375 33.234375 
Q 13.921875 27.546875 13.921875 21.484375 
Q 13.921875 14.75 17.0625 11.125 
Q 20.21875 7.515625 26.125 7.515625 
Q 34.671875 7.515625 40.375 15.25 
Q 46.09375 23 46.09375 34.625 
z
" id="DejaVuSans-Oblique-103"/>
       <path d="M 12.40625 8.296875 
L 28.515625 8.296875 
L 28.515625 63.921875 
L 10.984375 60.40625 
L 10.984375 69.390625 
L 28.421875 72.90625 
L 38.28125 72.90625 
L 38.28125 8.296875 
L 54.390625 8.296875 
L 54.390625 0 
L 12.40625 0 
z
" id="DejaVuSans-49"/>
       <path d="M 31.78125 66.40625 
Q 24.171875 66.40625 20.328125 58.90625 
Q 16.5 51.421875 16.5 36.375 
Q 16.5 21.390625 20.328125 13.890625 
Q 24.171875 6.390625 31.78125 6.390625 
Q 39.453125 6.390625 43.28125 13.890625 
Q 47.125 21.390625 47.125 36.375 
Q 47.125 51.421875 43.28125 58.90625 
Q 39.453125 66.40625 31.78125 66.40625 
z
M 31.78125 74.21875 
Q 44.046875 74.21875 50.515625 64.515625 
Q 56.984375 54.828125 56.984375 36.375 
Q 56.984375 17.96875 50.515625 8.265625 
Q 44.046875 -1.421875 31.78125 -1.421875 
Q 19.53125 -1.421875 13.0625 8.265625 
Q 6.59375 17.96875 6.59375 36.375 
Q 6.59375 54.828125 13.0625 64.515625 
Q 19.53125 74.21875 31.78125 74.21875 
z
" id="DejaVuSans-48"/>
       <path id="ArialMT-32"/>
       <path d="M 7.71875 0 
L 7.71875 71.578125 
L 34.71875 71.578125 
Q 41.84375 71.578125 45.609375 70.90625 
Q 50.875 70.015625 54.4375 67.546875 
Q 58.015625 65.09375 60.1875 60.640625 
Q 62.359375 56.203125 62.359375 50.875 
Q 62.359375 41.75 56.546875 35.421875 
Q 50.734375 29.109375 35.546875 29.109375 
L 17.1875 29.109375 
L 17.1875 0 
z
M 17.1875 37.546875 
L 35.6875 37.546875 
Q 44.875 37.546875 48.734375 40.96875 
Q 52.59375 44.390625 52.59375 50.59375 
Q 52.59375 55.078125 50.3125 58.265625 
Q 48.046875 61.46875 44.34375 62.5 
Q 41.9375 63.140625 35.5 63.140625 
L 17.1875 63.140625 
z
" id="ArialMT-80"/>
       <path d="M 6.5 0 
L 6.5 51.859375 
L 14.40625 51.859375 
L 14.40625 44 
Q 17.4375 49.515625 20 51.265625 
Q 22.5625 53.03125 25.640625 53.03125 
Q 30.078125 53.03125 34.671875 50.203125 
L 31.640625 42.046875 
Q 28.421875 43.953125 25.203125 43.953125 
Q 22.3125 43.953125 20.015625 42.21875 
Q 17.71875 40.484375 16.75 37.40625 
Q 15.28125 32.71875 15.28125 27.15625 
L 15.28125 0 
z
" id="ArialMT-114"/>
       <path d="M 3.328125 25.921875 
Q 3.328125 40.328125 11.328125 47.265625 
Q 18.015625 53.03125 27.640625 53.03125 
Q 38.328125 53.03125 45.109375 46.015625 
Q 51.90625 39.015625 51.90625 26.65625 
Q 51.90625 16.65625 48.90625 10.90625 
Q 45.90625 5.171875 40.15625 2 
Q 34.421875 -1.171875 27.640625 -1.171875 
Q 16.75 -1.171875 10.03125 5.8125 
Q 3.328125 12.796875 3.328125 25.921875 
z
M 12.359375 25.921875 
Q 12.359375 15.96875 16.703125 11.015625 
Q 21.046875 6.0625 27.640625 6.0625 
Q 34.1875 6.0625 38.53125 11.03125 
Q 42.875 16.015625 42.875 26.21875 
Q 42.875 35.84375 38.5 40.796875 
Q 34.125 45.75 27.640625 45.75 
Q 21.046875 45.75 16.703125 40.8125 
Q 12.359375 35.890625 12.359375 25.921875 
z
" id="ArialMT-111"/>
       <path d="M 14.703125 0 
L 6.546875 0 
L 6.546875 71.578125 
L 15.328125 71.578125 
L 15.328125 46.046875 
Q 20.90625 53.03125 29.546875 53.03125 
Q 34.328125 53.03125 38.59375 51.09375 
Q 42.875 49.171875 45.625 45.671875 
Q 48.390625 42.1875 49.953125 37.25 
Q 51.515625 32.328125 51.515625 26.703125 
Q 51.515625 13.375 44.921875 6.09375 
Q 38.328125 -1.171875 29.109375 -1.171875 
Q 19.921875 -1.171875 14.703125 6.5 
z
M 14.59375 26.3125 
Q 14.59375 17 17.140625 12.84375 
Q 21.296875 6.0625 28.375 6.0625 
Q 34.125 6.0625 38.328125 11.0625 
Q 42.53125 16.0625 42.53125 25.984375 
Q 42.53125 36.140625 38.5 40.96875 
Q 34.46875 45.796875 28.765625 45.796875 
Q 23 45.796875 18.796875 40.796875 
Q 14.59375 35.796875 14.59375 26.3125 
z
" id="ArialMT-98"/>
       <path d="M 40.4375 6.390625 
Q 35.546875 2.25 31.03125 0.53125 
Q 26.515625 -1.171875 21.34375 -1.171875 
Q 12.796875 -1.171875 8.203125 3 
Q 3.609375 7.171875 3.609375 13.671875 
Q 3.609375 17.484375 5.34375 20.625 
Q 7.078125 23.78125 9.890625 25.6875 
Q 12.703125 27.59375 16.21875 28.5625 
Q 18.796875 29.25 24.03125 29.890625 
Q 34.671875 31.15625 39.703125 32.90625 
Q 39.75 34.71875 39.75 35.203125 
Q 39.75 40.578125 37.25 42.78125 
Q 33.890625 45.75 27.25 45.75 
Q 21.046875 45.75 18.09375 43.578125 
Q 15.140625 41.40625 13.71875 35.890625 
L 5.125 37.0625 
Q 6.296875 42.578125 8.984375 45.96875 
Q 11.671875 49.359375 16.75 51.1875 
Q 21.828125 53.03125 28.515625 53.03125 
Q 35.15625 53.03125 39.296875 51.46875 
Q 43.453125 49.90625 45.40625 47.53125 
Q 47.359375 45.171875 48.140625 41.546875 
Q 48.578125 39.3125 48.578125 33.453125 
L 48.578125 21.734375 
Q 48.578125 9.46875 49.140625 6.21875 
Q 49.703125 2.984375 51.375 0 
L 42.1875 0 
Q 40.828125 2.734375 40.4375 6.390625 
z
M 39.703125 26.03125 
Q 34.90625 24.078125 25.34375 22.703125 
Q 19.921875 21.921875 17.671875 20.9375 
Q 15.4375 19.96875 14.203125 18.09375 
Q 12.984375 16.21875 12.984375 13.921875 
Q 12.984375 10.40625 15.640625 8.0625 
Q 18.3125 5.71875 23.4375 5.71875 
Q 28.515625 5.71875 32.46875 7.9375 
Q 36.421875 10.15625 38.28125 14.015625 
Q 39.703125 17 39.703125 22.796875 
z
" id="ArialMT-97"/>
       <path d="M 6.640625 61.46875 
L 6.640625 71.578125 
L 15.4375 71.578125 
L 15.4375 61.46875 
z
M 6.640625 0 
L 6.640625 51.859375 
L 15.4375 51.859375 
L 15.4375 0 
z
" id="ArialMT-105"/>
       <path d="M 6.390625 0 
L 6.390625 71.578125 
L 15.1875 71.578125 
L 15.1875 0 
z
" id="ArialMT-108"/>
       <path d="M 25.78125 7.859375 
L 27.046875 0.09375 
Q 23.34375 -0.6875 20.40625 -0.6875 
Q 15.625 -0.6875 12.984375 0.828125 
Q 10.359375 2.34375 9.28125 4.8125 
Q 8.203125 7.28125 8.203125 15.1875 
L 8.203125 45.015625 
L 1.765625 45.015625 
L 1.765625 51.859375 
L 8.203125 51.859375 
L 8.203125 64.703125 
L 16.9375 69.96875 
L 16.9375 51.859375 
L 25.78125 51.859375 
L 25.78125 45.015625 
L 16.9375 45.015625 
L 16.9375 14.703125 
Q 16.9375 10.9375 17.40625 9.859375 
Q 17.875 8.796875 18.921875 8.15625 
Q 19.96875 7.515625 21.921875 7.515625 
Q 23.390625 7.515625 25.78125 7.859375 
z
" id="ArialMT-116"/>
       <path d="M 6.203125 -19.96875 
L 5.21875 -11.71875 
Q 8.109375 -12.5 10.25 -12.5 
Q 13.1875 -12.5 14.9375 -11.515625 
Q 16.703125 -10.546875 17.828125 -8.796875 
Q 18.65625 -7.46875 20.515625 -2.25 
Q 20.75 -1.515625 21.296875 -0.09375 
L 1.609375 51.859375 
L 11.078125 51.859375 
L 21.875 21.828125 
Q 23.96875 16.109375 25.640625 9.8125 
Q 27.15625 15.875 29.25 21.625 
L 40.328125 51.859375 
L 49.125 51.859375 
L 29.390625 -0.875 
Q 26.21875 -9.421875 24.46875 -12.640625 
Q 22.125 -17 19.09375 -19.015625 
Q 16.0625 -21.046875 11.859375 -21.046875 
Q 9.328125 -21.046875 6.203125 -19.96875 
z
" id="ArialMT-121"/>
      </defs>
      <use transform="translate(0 0.09375)" xlink:href="#DejaVuSans-Oblique-76"/>
      <use transform="translate(55.712891 0.09375)" xlink:href="#DejaVuSans-Oblique-111"/>
      <use transform="translate(116.894531 0.09375)" xlink:href="#DejaVuSans-Oblique-103"/>
      <use transform="translate(180.371094 -16.3125)scale(0.7)" xlink:href="#DejaVuSans-49"/>
      <use transform="translate(224.907227 -16.3125)scale(0.7)" xlink:href="#DejaVuSans-48"/>
      <use transform="translate(272.177734 0.09375)" xlink:href="#ArialMT-32"/>
      <use transform="translate(299.960938 0.09375)" xlink:href="#ArialMT-80"/>
      <use transform="translate(366.660156 0.09375)" xlink:href="#ArialMT-114"/>
      <use transform="translate(399.960938 0.09375)" xlink:href="#ArialMT-111"/>
      <use transform="translate(455.576172 0.09375)" xlink:href="#ArialMT-98"/>
      <use transform="translate(511.191406 0.09375)" xlink:href="#ArialMT-97"/>
      <use transform="translate(566.806641 0.09375)" xlink:href="#ArialMT-98"/>
      <use transform="translate(622.421875 0.09375)" xlink:href="#ArialMT-105"/>
      <use transform="translate(644.638672 0.09375)" xlink:href="#ArialMT-108"/>
      <use transform="translate(666.855469 0.09375)" xlink:href="#ArialMT-105"/>
      <use transform="translate(689.072266 0.09375)" xlink:href="#ArialMT-116"/>
      <use transform="translate(716.855469 0.09375)" xlink:href="#ArialMT-121"/>
     </g>
    </g>
   </g>
   <g id="line2d_21">
    <path clip-path="url(#p1186d51cde)" d="M 68.115113 164.836713 
L 70.615638 143.420077 
L 71.865901 134.299661 
L 73.116163 126.706729 
L 74.366426 120.893019 
L 75.616688 116.957836 
L 76.866951 114.46087 
L 78.117213 113.019701 
L 79.367476 112.269349 
L 80.617739 112.05744 
L 81.868001 112.33139 
L 83.118264 112.986437 
L 84.368526 113.955092 
L 85.618789 115.186806 
L 88.119314 118.11249 
L 90.619839 121.401754 
L 104.372728 140.284417 
L 109.373778 146.606157 
L 114.374828 152.546817 
L 120.626141 159.614921 
L 126.877454 166.271298 
L 133.128767 172.587287 
L 144.381131 183.538114 
L 156.883756 195.399972 
L 176.087137 213.598425 
L 176.087137 213.598425 
" style="fill:none;stroke:#000000;stroke-linecap:square;stroke-width:1.5;"/>
   </g>
   <g id="line2d_22">
    <path clip-path="url(#p1186d51cde)" d="M 68.115113 126.629226 
L 69.365375 125.031831 
L 70.615638 123.633553 
L 71.865901 122.439412 
L 73.116163 121.42985 
L 74.366426 120.596455 
L 75.616688 119.954963 
L 76.866951 119.510463 
L 78.117213 119.220645 
L 79.367476 119.109407 
L 80.617739 119.118931 
L 81.868001 119.281207 
L 84.368526 119.944987 
L 86.869052 121.023023 
L 89.369577 122.390752 
L 93.120364 124.820723 
L 96.871152 127.62482 
L 100.62194 130.743902 
L 105.62299 135.330955 
L 110.624041 140.326852 
L 121.876404 152.046979 
L 155.633494 187.648697 
L 164.385332 196.5021 
L 173.13717 205.000699 
L 180.638746 212.005478 
L 182.387548 213.598425 
L 182.387548 213.598425 
" style="fill:none;stroke:#000000;stroke-dasharray:6,2.25;stroke-dashoffset:0;stroke-width:1.5;"/>
   </g>
   <g id="line2d_23">
    <path clip-path="url(#p1186d51cde)" d="M 68.115113 131.815983 
L 73.116163 126.622177 
L 76.866951 122.980714 
L 80.617739 119.58987 
L 85.618789 115.397352 
L 91.870102 110.498947 
L 98.121415 105.844375 
L 105.62299 100.543527 
L 111.874303 96.319199 
L 124.376929 88.329077 
L 134.37903 82.205937 
L 148.131918 74.011852 
L 156.883756 68.983716 
L 164.385332 64.911722 
L 171.886907 61.099159 
L 178.13822 58.125109 
L 184.389533 55.369324 
L 190.640846 52.832161 
L 196.892159 50.510246 
L 204.393735 47.95682 
L 211.89531 45.632808 
L 220.647148 43.167274 
L 230.649249 40.61079 
L 240.65135 38.305132 
L 251.903713 35.965118 
L 263.156076 33.865697 
L 274.40844 31.981288 
L 286.911065 30.118535 
L 301.914217 28.120938 
L 316.917368 26.351776 
L 316.917368 26.351776 
" style="fill:none;stroke:#000000;stroke-dasharray:1.5,1.5;stroke-dashoffset:0;stroke-width:1.5;"/>
   </g>
   <g id="line2d_24"/>
   <g id="line2d_25"/>
   <g id="line2d_26"/>
   <g id="patch_3">
    <path d="M 55.675 185.798425 
L 55.675 14.3 
" style="fill:none;stroke:#000000;stroke-linecap:square;stroke-linejoin:miter;stroke-width:0.8;"/>
   </g>
   <g id="patch_4">
    <path d="M 329.35748 185.798425 
L 329.35748 14.3 
" style="fill:none;stroke:#000000;stroke-linecap:square;stroke-linejoin:miter;stroke-width:0.8;"/>
   </g>
   <g id="patch_5">
    <path d="M 55.675 185.798425 
L 329.35748 185.798425 
" style="fill:none;stroke:#000000;stroke-linecap:square;stroke-linejoin:miter;stroke-width:0.8;"/>
   </g>
   <g id="patch_6">
    <path d="M 55.675 14.3 
L 329.35748 14.3 
" style="fill:none;stroke:#000000;stroke-linecap:square;stroke-linejoin:miter;stroke-width:0.8;"/>
   </g>
   <g id="legend_1">
    <g id="patch_7">
     <path d="M 62.675 64.970312 
L 161.392188 64.970312 
Q 163.392188 64.970312 163.392188 62.970312 
L 163.392188 21.3 
Q 163.392188 19.3 161.392188 19.3 
L 62.675 19.3 
Q 60.675 19.3 60.675 21.3 
L 60.675 62.970312 
Q 60.675 64.970312 62.675 64.970312 
z
" style="fill:#ffffff;opacity:0.8;stroke:#cccccc;stroke-linejoin:miter;"/>
    </g>
    <g id="line2d_27">
     <path d="M 64.675 26.957812 
L 84.675 26.957812 
" style="fill:none;stroke:#333333;stroke-linecap:square;stroke-width:1.5;"/>
    </g>
    <g id="line2d_28"/>
    <g id="text_12">
     <!-- mean_pat_age -->
     <g transform="translate(92.675 30.457812)scale(0.1 -0.1)">
      <defs>
       <path d="M 6.59375 0 
L 6.59375 51.859375 
L 14.453125 51.859375 
L 14.453125 44.578125 
Q 16.890625 48.390625 20.9375 50.703125 
Q 25 53.03125 30.171875 53.03125 
Q 35.9375 53.03125 39.625 50.640625 
Q 43.3125 48.25 44.828125 43.953125 
Q 50.984375 53.03125 60.84375 53.03125 
Q 68.5625 53.03125 72.703125 48.75 
Q 76.859375 44.484375 76.859375 35.59375 
L 76.859375 0 
L 68.109375 0 
L 68.109375 32.671875 
Q 68.109375 37.9375 67.25 40.25 
Q 66.40625 42.578125 64.15625 43.984375 
Q 61.921875 45.40625 58.890625 45.40625 
Q 53.421875 45.40625 49.796875 41.765625 
Q 46.1875 38.140625 46.1875 30.125 
L 46.1875 0 
L 37.40625 0 
L 37.40625 33.6875 
Q 37.40625 39.546875 35.25 42.46875 
Q 33.109375 45.40625 28.21875 45.40625 
Q 24.515625 45.40625 21.359375 43.453125 
Q 18.21875 41.5 16.796875 37.734375 
Q 15.375 33.984375 15.375 26.90625 
L 15.375 0 
z
" id="ArialMT-109"/>
       <path d="M 42.09375 16.703125 
L 51.171875 15.578125 
Q 49.03125 7.625 43.21875 3.21875 
Q 37.40625 -1.171875 28.375 -1.171875 
Q 17 -1.171875 10.328125 5.828125 
Q 3.65625 12.84375 3.65625 25.484375 
Q 3.65625 38.578125 10.390625 45.796875 
Q 17.140625 53.03125 27.875 53.03125 
Q 38.28125 53.03125 44.875 45.953125 
Q 51.46875 38.875 51.46875 26.03125 
Q 51.46875 25.25 51.421875 23.6875 
L 12.75 23.6875 
Q 13.234375 15.140625 17.578125 10.59375 
Q 21.921875 6.0625 28.421875 6.0625 
Q 33.25 6.0625 36.671875 8.59375 
Q 40.09375 11.140625 42.09375 16.703125 
z
M 13.234375 30.90625 
L 42.1875 30.90625 
Q 41.609375 37.453125 38.875 40.71875 
Q 34.671875 45.796875 27.984375 45.796875 
Q 21.921875 45.796875 17.796875 41.75 
Q 13.671875 37.703125 13.234375 30.90625 
z
" id="ArialMT-101"/>
       <path d="M 6.59375 0 
L 6.59375 51.859375 
L 14.5 51.859375 
L 14.5 44.484375 
Q 20.21875 53.03125 31 53.03125 
Q 35.6875 53.03125 39.625 51.34375 
Q 43.5625 49.65625 45.515625 46.921875 
Q 47.46875 44.1875 48.25 40.4375 
Q 48.734375 37.984375 48.734375 31.890625 
L 48.734375 0 
L 39.9375 0 
L 39.9375 31.546875 
Q 39.9375 36.921875 38.90625 39.578125 
Q 37.890625 42.234375 35.28125 43.8125 
Q 32.671875 45.40625 29.15625 45.40625 
Q 23.53125 45.40625 19.453125 41.84375 
Q 15.375 38.28125 15.375 28.328125 
L 15.375 0 
z
" id="ArialMT-110"/>
       <path d="M -1.515625 -19.875 
L -1.515625 -13.53125 
L 56.734375 -13.53125 
L 56.734375 -19.875 
z
" id="ArialMT-95"/>
       <path d="M 6.59375 -19.875 
L 6.59375 51.859375 
L 14.59375 51.859375 
L 14.59375 45.125 
Q 17.4375 49.078125 21 51.046875 
Q 24.5625 53.03125 29.640625 53.03125 
Q 36.28125 53.03125 41.359375 49.609375 
Q 46.4375 46.1875 49.015625 39.953125 
Q 51.609375 33.734375 51.609375 26.3125 
Q 51.609375 18.359375 48.75 11.984375 
Q 45.90625 5.609375 40.453125 2.21875 
Q 35.015625 -1.171875 29 -1.171875 
Q 24.609375 -1.171875 21.109375 0.6875 
Q 17.625 2.546875 15.375 5.375 
L 15.375 -19.875 
z
M 14.546875 25.640625 
Q 14.546875 15.625 18.59375 10.84375 
Q 22.65625 6.0625 28.421875 6.0625 
Q 34.28125 6.0625 38.453125 11.015625 
Q 42.625 15.96875 42.625 26.375 
Q 42.625 36.28125 38.546875 41.203125 
Q 34.46875 46.140625 28.8125 46.140625 
Q 23.1875 46.140625 18.859375 40.890625 
Q 14.546875 35.640625 14.546875 25.640625 
z
" id="ArialMT-112"/>
       <path d="M 4.984375 -4.296875 
L 13.53125 -5.5625 
Q 14.0625 -9.515625 16.5 -11.328125 
Q 19.78125 -13.765625 25.4375 -13.765625 
Q 31.546875 -13.765625 34.859375 -11.328125 
Q 38.1875 -8.890625 39.359375 -4.5 
Q 40.046875 -1.8125 39.984375 6.78125 
Q 34.234375 0 25.640625 0 
Q 14.9375 0 9.078125 7.71875 
Q 3.21875 15.4375 3.21875 26.21875 
Q 3.21875 33.640625 5.90625 39.90625 
Q 8.59375 46.1875 13.6875 49.609375 
Q 18.796875 53.03125 25.6875 53.03125 
Q 34.859375 53.03125 40.828125 45.609375 
L 40.828125 51.859375 
L 48.921875 51.859375 
L 48.921875 7.03125 
Q 48.921875 -5.078125 46.453125 -10.125 
Q 44 -15.1875 38.640625 -18.109375 
Q 33.296875 -21.046875 25.484375 -21.046875 
Q 16.21875 -21.046875 10.5 -16.875 
Q 4.78125 -12.703125 4.984375 -4.296875 
z
M 12.25 26.859375 
Q 12.25 16.65625 16.296875 11.96875 
Q 20.359375 7.28125 26.46875 7.28125 
Q 32.515625 7.28125 36.609375 11.9375 
Q 40.71875 16.609375 40.71875 26.5625 
Q 40.71875 36.078125 36.5 40.90625 
Q 32.28125 45.75 26.3125 45.75 
Q 20.453125 45.75 16.34375 40.984375 
Q 12.25 36.234375 12.25 26.859375 
z
" id="ArialMT-103"/>
      </defs>
      <use xlink:href="#ArialMT-109"/>
      <use x="83.300781" xlink:href="#ArialMT-101"/>
      <use x="138.916016" xlink:href="#ArialMT-97"/>
      <use x="194.53125" xlink:href="#ArialMT-110"/>
      <use x="250.146484" xlink:href="#ArialMT-95"/>
      <use x="305.761719" xlink:href="#ArialMT-112"/>
      <use x="361.376953" xlink:href="#ArialMT-97"/>
      <use x="416.992188" xlink:href="#ArialMT-116"/>
      <use x="444.775391" xlink:href="#ArialMT-95"/>
      <use x="500.390625" xlink:href="#ArialMT-97"/>
      <use x="556.005859" xlink:href="#ArialMT-103"/>
      <use x="611.621094" xlink:href="#ArialMT-101"/>
     </g>
    </g>
    <g id="line2d_29">
     <path d="M 64.675 41.220312 
L 84.675 41.220312 
" style="fill:none;stroke:#333333;stroke-dasharray:6,2.25;stroke-dashoffset:0;stroke-width:1.5;"/>
    </g>
    <g id="line2d_30"/>
    <g id="text_13">
     <!-- radicalness -->
     <g transform="translate(92.675 44.720312)scale(0.1 -0.1)">
      <defs>
       <path d="M 40.234375 0 
L 40.234375 6.546875 
Q 35.296875 -1.171875 25.734375 -1.171875 
Q 19.53125 -1.171875 14.328125 2.25 
Q 9.125 5.671875 6.265625 11.796875 
Q 3.421875 17.921875 3.421875 25.875 
Q 3.421875 33.640625 6 39.96875 
Q 8.59375 46.296875 13.765625 49.65625 
Q 18.953125 53.03125 25.34375 53.03125 
Q 30.03125 53.03125 33.6875 51.046875 
Q 37.359375 49.078125 39.65625 45.90625 
L 39.65625 71.578125 
L 48.390625 71.578125 
L 48.390625 0 
z
M 12.453125 25.875 
Q 12.453125 15.921875 16.640625 10.984375 
Q 20.84375 6.0625 26.5625 6.0625 
Q 32.328125 6.0625 36.34375 10.765625 
Q 40.375 15.484375 40.375 25.140625 
Q 40.375 35.796875 36.265625 40.765625 
Q 32.171875 45.75 26.171875 45.75 
Q 20.3125 45.75 16.375 40.96875 
Q 12.453125 36.1875 12.453125 25.875 
z
" id="ArialMT-100"/>
       <path d="M 40.4375 19 
L 49.078125 17.875 
Q 47.65625 8.9375 41.8125 3.875 
Q 35.984375 -1.171875 27.484375 -1.171875 
Q 16.84375 -1.171875 10.375 5.78125 
Q 3.90625 12.75 3.90625 25.734375 
Q 3.90625 34.125 6.6875 40.421875 
Q 9.46875 46.734375 15.15625 49.875 
Q 20.84375 53.03125 27.546875 53.03125 
Q 35.984375 53.03125 41.359375 48.75 
Q 46.734375 44.484375 48.25 36.625 
L 39.703125 35.296875 
Q 38.484375 40.53125 35.375 43.15625 
Q 32.28125 45.796875 27.875 45.796875 
Q 21.234375 45.796875 17.078125 41.03125 
Q 12.9375 36.28125 12.9375 25.984375 
Q 12.9375 15.53125 16.9375 10.796875 
Q 20.953125 6.0625 27.390625 6.0625 
Q 32.5625 6.0625 36.03125 9.234375 
Q 39.5 12.40625 40.4375 19 
z
" id="ArialMT-99"/>
       <path d="M 3.078125 15.484375 
L 11.765625 16.84375 
Q 12.5 11.625 15.84375 8.84375 
Q 19.1875 6.0625 25.203125 6.0625 
Q 31.25 6.0625 34.171875 8.515625 
Q 37.109375 10.984375 37.109375 14.3125 
Q 37.109375 17.28125 34.515625 19 
Q 32.71875 20.171875 25.53125 21.96875 
Q 15.875 24.421875 12.140625 26.203125 
Q 8.40625 27.984375 6.46875 31.125 
Q 4.546875 34.28125 4.546875 38.09375 
Q 4.546875 41.546875 6.125 44.5 
Q 7.71875 47.46875 10.453125 49.421875 
Q 12.5 50.921875 16.03125 51.96875 
Q 19.578125 53.03125 23.640625 53.03125 
Q 29.734375 53.03125 34.34375 51.265625 
Q 38.96875 49.515625 41.15625 46.5 
Q 43.359375 43.5 44.1875 38.484375 
L 35.59375 37.3125 
Q 35.015625 41.3125 32.203125 43.546875 
Q 29.390625 45.796875 24.265625 45.796875 
Q 18.21875 45.796875 15.625 43.796875 
Q 13.03125 41.796875 13.03125 39.109375 
Q 13.03125 37.40625 14.109375 36.03125 
Q 15.1875 34.625 17.484375 33.6875 
Q 18.796875 33.203125 25.25 31.453125 
Q 34.578125 28.953125 38.25 27.359375 
Q 41.9375 25.78125 44.03125 22.75 
Q 46.140625 19.734375 46.140625 15.234375 
Q 46.140625 10.84375 43.578125 6.953125 
Q 41.015625 3.078125 36.171875 0.953125 
Q 31.34375 -1.171875 25.25 -1.171875 
Q 15.140625 -1.171875 9.84375 3.03125 
Q 4.546875 7.234375 3.078125 15.484375 
z
" id="ArialMT-115"/>
      </defs>
      <use xlink:href="#ArialMT-114"/>
      <use x="33.300781" xlink:href="#ArialMT-97"/>
      <use x="88.916016" xlink:href="#ArialMT-100"/>
      <use x="144.53125" xlink:href="#ArialMT-105"/>
      <use x="166.748047" xlink:href="#ArialMT-99"/>
      <use x="216.748047" xlink:href="#ArialMT-97"/>
      <use x="272.363281" xlink:href="#ArialMT-108"/>
      <use x="294.580078" xlink:href="#ArialMT-110"/>
      <use x="350.195312" xlink:href="#ArialMT-101"/>
      <use x="405.810547" xlink:href="#ArialMT-115"/>
      <use x="455.810547" xlink:href="#ArialMT-115"/>
     </g>
    </g>
    <g id="line2d_31">
     <path d="M 64.675 55.365625 
L 84.675 55.365625 
" style="fill:none;stroke:#333333;stroke-dasharray:1.5,1.5;stroke-dashoffset:0;stroke-width:1.5;"/>
    </g>
    <g id="line2d_32"/>
    <g id="text_14">
     <!-- new_trigrams -->
     <g transform="translate(92.675 58.865625)scale(0.1 -0.1)">
      <defs>
       <path d="M 16.15625 0 
L 0.296875 51.859375 
L 9.375 51.859375 
L 17.625 21.921875 
L 20.703125 10.796875 
Q 20.90625 11.625 23.390625 21.484375 
L 31.640625 51.859375 
L 40.671875 51.859375 
L 48.4375 21.78125 
L 51.03125 11.859375 
L 54 21.875 
L 62.890625 51.859375 
L 71.4375 51.859375 
L 55.21875 0 
L 46.09375 0 
L 37.84375 31.0625 
L 35.84375 39.890625 
L 25.34375 0 
z
" id="ArialMT-119"/>
      </defs>
      <use xlink:href="#ArialMT-110"/>
      <use x="55.615234" xlink:href="#ArialMT-101"/>
      <use x="111.230469" xlink:href="#ArialMT-119"/>
      <use x="183.447266" xlink:href="#ArialMT-95"/>
      <use x="239.0625" xlink:href="#ArialMT-116"/>
      <use x="266.845703" xlink:href="#ArialMT-114"/>
      <use x="300.146484" xlink:href="#ArialMT-105"/>
      <use x="322.363281" xlink:href="#ArialMT-103"/>
      <use x="377.978516" xlink:href="#ArialMT-114"/>
      <use x="411.279297" xlink:href="#ArialMT-97"/>
      <use x="466.894531" xlink:href="#ArialMT-109"/>
      <use x="550.195312" xlink:href="#ArialMT-115"/>
     </g>
    </g>
   </g>
  </g>
 </g>
 <defs>
  <clipPath id="p1186d51cde">
   <rect height="171.498425" width="273.68248" x="55.675" y="14.3"/>
  </clipPath>
 </defs>
</svg>
